<svg id="Capa_1" data-name="Capa 1" xmlns="http://www.w3.org/2000/svg" xmlns:xlink="http://www.w3.org/1999/xlink" viewBox="0 0 500 500"><defs><style>.cls-1{fill:#e30c17;}.cls-2{fill:url(#Degradado_sin_nombre_26);}.cls-3{fill:#fff;}.cls-4{fill:url(#Degradado_sin_nombre_36);}.cls-5{fill:url(#Degradado_sin_nombre_36-2);}.cls-6{fill:url(#Degradado_sin_nombre_36-3);}.cls-7{fill:url(#Degradado_sin_nombre_36-4);}.cls-8{fill:url(#Degradado_sin_nombre_26-2);}.cls-9{fill:#1d1d1b;}</style><radialGradient id="Degradado_sin_nombre_26" cx="192.84" cy="139.45" r="0" gradientUnits="userSpaceOnUse"><stop offset="0" stop-color="#fff"/><stop offset="0.34" stop-color="#fdfdfd"/><stop offset="0.53" stop-color="#f5f5f5"/><stop offset="0.68" stop-color="#e7e7e7"/><stop offset="0.81" stop-color="#d3d3d3"/><stop offset="0.92" stop-color="#bababa"/><stop offset="0.96" stop-color="#b2b2b2"/></radialGradient><radialGradient id="Degradado_sin_nombre_36" cx="190.18" cy="151.69" r="9.47" gradientUnits="userSpaceOnUse"><stop offset="0.01" stop-color="#fff"/><stop offset="0.22" stop-color="#fbfbfb"/><stop offset="0.41" stop-color="#f0f0f0"/><stop offset="0.6" stop-color="#dcdcdc"/><stop offset="0.79" stop-color="#c1c1c1"/><stop offset="0.88" stop-color="#b2b2b2"/></radialGradient><radialGradient id="Degradado_sin_nombre_36-2" cx="207.82" cy="154.06" r="8.48" xlink:href="#Degradado_sin_nombre_36"/><radialGradient id="Degradado_sin_nombre_36-3" cx="310.48" cy="151.69" r="9.47" xlink:href="#Degradado_sin_nombre_36"/><radialGradient id="Degradado_sin_nombre_36-4" cx="292.83" cy="154.06" r="8.48" xlink:href="#Degradado_sin_nombre_36"/><radialGradient id="Degradado_sin_nombre_26-2" cx="201.02" cy="143.58" r="0.01" xlink:href="#Degradado_sin_nombre_26"/></defs><rect class="cls-1" width="500" height="500" rx="250"/><path class="cls-2" d="M192.84,139.44h0Z"/><polygon class="cls-3" points="288.41 388.16 267.74 421.22 259.42 434.53 250.95 448.08 250.74 448.08 242.23 434.48 233.72 420.87 213.28 388.16 250.84 419.2 288.41 388.16"/><path class="cls-3" d="M444.71,210.89l-.06-.4c-.06-.27-.16-.84-.32-1.56l0-.17c0-.13-.06-.24-.08-.34l0-.11a2.25,2.25,0,0,0-.05-.22c0-.16-.08-.31-.12-.47v-.05c0-.13-.09-.34-.16-.59l0-.09c-.06-.21-.12-.43-.19-.64l-.09-.31s0-.09,0-.14-.06-.21-.1-.32-.1-.32-.16-.48l0-.07-.09-.27a.88.88,0,0,1-.05-.15l0,0c0-.13-.09-.27-.14-.4a3.71,3.71,0,0,0-.14-.39c-.06-.17-.13-.35-.2-.52l-.07-.18c-.06-.16-.12-.32-.19-.48l-.06-.15c-.05-.14-.1-.26-.15-.37l-.3-.69c-.16-.37-.31-.69-.43-1l-.27-.56c-.09-.18-.19-.36-.28-.55l-.08-.16-.12-.23q-.25-.5-.51-1a15.84,15.84,0,0,0-1.29-2.3,123,123,0,0,0-21.46-23.39c-11-9.52-23.63-15.55-34.73-20.86-15.46-7.43-28.45-12.19-41.13-15a25.38,25.38,0,0,0-14.2-15.1l0,0c-3.12-1.35-6.84-2.92-10.79-4.33l0,0a25.73,25.73,0,0,0-8.61-1.51A24.24,24.24,0,0,0,302,116a15,15,0,0,0-2-.64l-.66-.15c-1.21-.3-2.59-.63-4.05-.92a112.39,112.39,0,0,0-21.84-2.39,69.41,69.41,0,0,0-21.48,3.21,5.11,5.11,0,0,1-4,0,66.66,66.66,0,0,0-21.1-3.19,108.06,108.06,0,0,0-16.33,1.37c-2.62.4-5.09.9-7.48,1.39l-2.95.59a14.75,14.75,0,0,0-2.3.64,22.78,22.78,0,0,0-5.51-.68,22,22,0,0,0-7.53,1.33,102.59,102.59,0,0,0-16.25,7.19,23.09,23.09,0,0,0-10,12.6c-20.11,4.41-37.9,13-51.31,20C96.52,162,82.84,170.07,71.46,182.74c-2.72,3-5.1,5.91-7.29,8.81a42.33,42.33,0,0,0-3.41,4.81l0,0-.19.32,0,.08-.51.89c-.08.16-.17.31-.26.47s0,0,0,.05l-.25.47v0l-.08.17-.06.1-.22.44c-.27.52-.51,1-.76,1.59l-.09.2c-.06.12-.11.26-.17.39v0a2.4,2.4,0,0,0-.11.23l-.19.48a2,2,0,0,0-.11.26c0,.09-.07.17-.11.25l-.16.45a.2.2,0,0,0,0,.08c0,.12-.09.23-.13.35v0c-.09.23-.18.48-.26.72v0c0,.11-.07.22-.11.33l-.06.19,0,.09-.15.46c0,.07,0,.15-.07.23a1.09,1.09,0,0,0,0,.17c-.06.17-.11.35-.16.53v0c-.1.35-.18.66-.24.9a3.57,3.57,0,0,0-.1.35c0,.14-.07.27-.1.4s-.06.25-.1.44-.13.53-.18.81l0,.11,0,.14v.06c-.07.34-.13.67-.18,1-.14.78-.25,1.61-.33,2.46-.11,1.1-.16,2.26-.17,3.44a47.87,47.87,0,0,0,.82,8.85.68.68,0,0,0,0,.15c.09.44.17.86.25,1.29,0,0,0,0,0,.05l0,.05c0,.17.06.34.1.51s.09.45.15.68.1.46.16.69.06.26.1.39v0l0,.11c0,.13.06.25.1.38l.09.34,0,.14c0,.1,0,.19.08.3v0c0,.08.05.19.09.32a5.08,5.08,0,0,0,.15.52c.06.22.12.43.19.64,0,0,0,0,0,0s.09.31.14.47l0,.14c.07.25.15.49.23.73s.07.23.11.35.09.25.12.35.11.33.18.53.12.34.19.51v0c0,.07,0,.13.08.21l.16.46a2,2,0,0,0,.11.29l.1.27.16.42c.23.6.54,1.37.89,2.17l.18.41s0,.09,0,.12l0,.08.09.21a.21.21,0,0,1,0,.07l.27.59.15.31a.54.54,0,0,0,0,.11l.07.15.06.13,0,.08.09.2.13.26c0,.1.1.2.16.32l.18.35c.11.24.23.47.36.71l0,0v0l.08.15.14.25c.07.15.15.29.23.43l.13.23c.08.15.16.28.24.41a.31.31,0,0,0,.05.1h0c.48.82.87,1.51,1.26,2.15a361,361,0,0,0,22.51,33.61c1.56,2.07,3.14,4.13,4.73,6.16l3,4.23v0l6.07,8.56a16.31,16.31,0,0,0,1.29,1.57,53.82,53.82,0,0,0,22.34,14,15.68,15.68,0,0,0,2,.5,85.47,85.47,0,0,0,10.4,1.14c6.14,9.09,11.64,15.68,11.91,16v0c1.46,1.74,7.25,9.56,15.26,20.4l0,.06c12.68,17.16,19,25.77,23,33.41a92.47,92.47,0,0,1,5.64,13.43l8.46,5.19a103.54,103.54,0,0,0-8.22-21.7c-4.23-8.09-10.69-16.84-23.58-34.28l0-.05c-8.38-11.34-13.91-18.83-15.51-20.73a206.35,206.35,0,0,1-13.37-18.31A79.13,79.13,0,0,1,127,309.07a6.94,6.94,0,0,1-1.09-.27,47.16,47.16,0,0,1-19.57-12.28,7.11,7.11,0,0,1-.7-.86l-9.16-12.93c-1.59-2-3.18-4.11-4.74-6.18a355.31,355.31,0,0,1-22.11-33l-1.22-2.09v0l0-.08c-.06-.11-.12-.22-.19-.33l-.16-.29-.14-.27h0l-.1-.19-.1-.18,0-.1,0-.09a4.13,4.13,0,0,1-.22-.42l0-.06-.19-.37-.11-.22c0-.07-.07-.15-.11-.23l-.07-.15-.1-.2a.61.61,0,0,0-.07-.14h0l-.07-.15a2.56,2.56,0,0,1-.11-.24l0-.07c-.07-.13-.13-.26-.19-.39a.94.94,0,0,0-.06-.15c0-.05,0-.11-.07-.17l0-.11,0-.06c-.05-.11-.1-.22-.14-.33v0c-.25-.56-.5-1.18-.81-2,0-.11-.09-.23-.13-.34s-.08-.22-.13-.33l-.09-.24-.09-.25v0c0-.07,0-.15-.08-.23l0-.08c0-.15-.11-.3-.16-.46l-.15-.44c0-.1-.07-.21-.11-.31l-.09-.3c-.08-.22-.15-.45-.22-.68l0-.15c0-.1-.05-.19-.08-.28v0s0-.11,0-.16l-.12-.42,0-.12c0-.14-.08-.28-.11-.43a2.63,2.63,0,0,1-.08-.3l0-.07a1.74,1.74,0,0,1,0-.22.57.57,0,0,1,0-.14l-.09-.35a2.33,2.33,0,0,1-.07-.25.83.83,0,0,0,0-.15v-.07c0-.1,0-.2-.07-.29a4.54,4.54,0,0,1-.12-.53.14.14,0,0,1,0-.07c0-.19-.09-.4-.13-.61s-.07-.3-.1-.44v-.06c-.09-.44-.17-.84-.24-1.25a.19.19,0,0,1,0-.08,42.79,42.79,0,0,1-.71-7.65c0-1,.05-1.93.14-2.83q.11-1.06.27-2c0-.21.08-.46.14-.76a.09.09,0,0,1,0-.05l0-.11c0-.08,0-.16.05-.25s.07-.32.11-.48,0,0,0-.07.06-.22.08-.33.05-.19.07-.27l0-.06c0-.08,0-.16,0-.23.08-.27.15-.55.24-.84v0c0-.13.07-.25.1-.37s0-.09.05-.14,0-.17.08-.25.07-.23.11-.34l0-.09.06-.19a1.46,1.46,0,0,1,.07-.19l0-.1a.06.06,0,0,0,0,0l.18-.5,0-.09v0c0-.08.07-.18.11-.27a.42.42,0,0,1,0-.1,2.49,2.49,0,0,1,.11-.29c0-.09.07-.17.1-.26l.08-.2a0,0,0,0,0,0,0c.06-.13.11-.25.16-.38h0l0-.07a.3.3,0,0,1,0-.08l0-.1a1.54,1.54,0,0,1,.08-.19c0-.06,0-.13.08-.19q.33-.72.66-1.38c.06-.11.12-.23.17-.34l0,0s0,0,0-.06l.12-.24c.06-.11.12-.22.19-.33h0c.07-.15.15-.29.23-.43l.46-.8,0-.08.12-.2,0,0a33.31,33.31,0,0,1,3-4.15c2.1-2.79,4.39-5.57,7-8.49,10.68-11.89,23.72-19.56,33.87-24.92,13.63-7.18,31.89-15.95,52.31-20,.7-.13,1.19-.25,1.55-.35a16.16,16.16,0,0,1,7.65-12.41A96.47,96.47,0,0,1,187,122.8a15.81,15.81,0,0,1,11.3.26,7.61,7.61,0,0,1,3-1.27c1-.19,2-.4,3-.6,2.31-.47,4.7-1,7.16-1.33,9.39-1.44,21.8-2.55,34.36,1.56a11.67,11.67,0,0,0,8.11,0c14.54-4.65,29-2.78,40-.62,1.32.26,2.57.56,3.77.85l.67.16a8,8,0,0,1,2.88,1.34,18.21,18.21,0,0,1,12.95-.12c3.8,1.36,7.38,2.88,10.4,4.19a18.82,18.82,0,0,1,11.48,14.68c13.44,2.6,27,7.4,43.66,15.38,10.72,5.13,22.88,10.95,33.26,19.9a116.86,116.86,0,0,1,20.32,22.13,8,8,0,0,1,.79,1.47.39.39,0,0,1,.06.11c.19.33.37.66.53,1l.06.12.1.19c.09.18.18.35.26.53l.18.37c.14.29.27.57.39.86s.18.42.26.61a1.89,1.89,0,0,1,.11.25l.06.15a.08.08,0,0,0,0,0l.13.33h0c0,.05,0,.09.05.14s0,.07,0,.11v0l.15.38c.05.11.08.22.12.33s.05.15.08.23,0,.07,0,.11l0,.13a1.61,1.61,0,0,1,.09.26l0,.11c0,.09.06.19.1.29a2.17,2.17,0,0,0,.07.24,1.09,1.09,0,0,1,.05.17c0,.08.05.14.06.21a.38.38,0,0,1,0,.1h0c0,.15.08.31.13.46l0,.12c.05.17.09.33.14.49l0,.08c0,.1.05.19.07.29a.14.14,0,0,0,0,.06.5.5,0,0,0,0,.13.78.78,0,0,1,0,.14,2.33,2.33,0,0,1,.07.25v.07s0,0,0,.06c.13.58.21,1,.26,1.32,0,.08,0,.17,0,.26a30.73,30.73,0,0,1,.39,5c0,.91,0,1.85-.11,2.77a.07.07,0,0,1,0,.05c-.09,1.14-.21,2.2-.37,3.25,0,.27-.09.59-.15.9,0,.15,0,.31-.07.45a0,0,0,0,0,0,0l-.15.82a.39.39,0,0,0,0,.14l0,.18c-.11.53-.22,1.06-.35,1.59a2.82,2.82,0,0,1-.07.31c-.26,1-.54,2.07-.83,3.08,0,0,0,0,0,0a1.89,1.89,0,0,1-.06.18l-.15.49a0,0,0,0,0,0,0l-.12.38,0,.11s0,.05,0,.08l0,.13c-.44,1.3-.91,2.58-1.47,3.92-.05.12-.1.24-.16.36s-.15.38-.23.56l-.2.44-.06.12,0,.07-.09.21,0,.09-.15.33h0c-.09.21-.19.41-.28.61l-.06.11c-.05.09-.09.19-.13.28a1.74,1.74,0,0,0-.1.19c-.22.46-.44.86-.62,1.2l-.09.18a.56.56,0,0,0-.05.08c0,.09-.09.17-.14.26l-.14.25h0a5.26,5.26,0,0,1-.27.47l-1.29,2.23a357.93,357.93,0,0,1-21.76,32.47c-1.74,2.32-3.4,4.48-4.95,6.44l-4.18,5.93-.34.44A51.45,51.45,0,0,1,382.64,302c-.27.13-.54.26-.81.36a79.14,79.14,0,0,1-8.24,3.41c-1.74.6-3.45,1.14-5.11,1.59-1.5.42-3,.79-4.58,1.12a205.35,205.35,0,0,1-14.47,20c-1.6,1.92-7.13,9.41-15.5,20.74-12.9,17.44-19.38,26.2-23.62,34.33a101,101,0,0,0-7.76,20l8.62-5.29a89.69,89.69,0,0,1,5-11.61c4-7.67,10.37-16.28,23.07-33.45,8-10.84,13.78-18.66,15.26-20.43A214.65,214.65,0,0,0,368,314.39c.75-.19,1.49-.38,2.23-.59,1.79-.49,3.65-1.06,5.5-1.71h0a83.73,83.73,0,0,0,8.71-3.59,11.56,11.56,0,0,0,1.19-.55,58.19,58.19,0,0,0,18.51-14.63c.21-.26.42-.54.62-.82l2.77-3.92,1.32-1.87c1.55-2,3.2-4.13,4.93-6.43A361.79,361.79,0,0,0,436,247.2l0,0c.43-.73.86-1.47,1.27-2.21.12-.19.23-.39.35-.59l.16-.29.17-.3.08-.16.09-.16c.18-.34.42-.8.7-1.37a2.24,2.24,0,0,0,.13-.27l.14-.28,0,0c.11-.24.23-.47.34-.72s.14-.29.2-.44h0a3.54,3.54,0,0,0,.16-.34v0h0c.11-.24.22-.49.32-.74s.1-.23.17-.37.19-.46.28-.69c.58-1.43,1.1-2.8,1.56-4.2l.08-.21a.29.29,0,0,1,0-.1v0l.15-.44c.07-.22.12-.41.17-.56s0-.13.05-.18a.14.14,0,0,0,0-.06c.33-1.1.64-2.23.92-3.36.05-.21.1-.41.14-.62.13-.53.24-1.06.35-1.57h0l0-.18c0-.07,0-.15.05-.22.06-.32.12-.61.16-.87s.08-.42.11-.61c.05-.34.11-.67.16-1,.18-1.2.33-2.42.43-3.7v-.08c.08-1.09.12-2.18.12-3.26A35.55,35.55,0,0,0,444.71,210.89Z"/><path class="cls-3" d="M271.41,164.55c0,8.22-3.63,15.07-7.88,21.67a15.76,15.76,0,0,0-6.1-1.06c-3.21,0-6,.71-7.23,1.73-1.25-1-4-1.73-7.23-1.73a14.87,14.87,0,0,0-6.51,1.26c-4.48-6.86-8.11-14-8.05-22.57a3,3,0,0,1,.47-2l21,3.68H250l21.15-3.71C271.44,162.28,271.41,163.07,271.41,164.55Z"/><path class="cls-3" d="M228.41,231.18a23.6,23.6,0,0,1-8.72-8.77c-4.74-7.8-6.85-16.44-7.61-25.44-.25-3,1.08-4.6,4-5.2a10.71,10.71,0,0,1,2.27-.17c5.09,0,5.56.44,5.27,5.33-.62,10.58,1.13,20.83,4,31C227.85,228.76,228,229.65,228.41,231.18Z"/><path class="cls-3" d="M271.18,230.45c1.09-5.08,2.6-10.12,3.19-15.26a185.56,185.56,0,0,0,1-19.87c0-2.34.67-3.34,2.83-3.51a26.45,26.45,0,0,1,4.26-.13c3.37.33,5,2.16,4.66,5.48-1.13,10.83-3.58,21.22-11,29.7A48.08,48.08,0,0,1,271.6,231Z"/><path class="cls-3" d="M202.78,129.43c3.3-.64,6.57-1.38,9.88-1.88,10.33-1.58,20.73-2,30.77,1.26a19.29,19.29,0,0,0,12.9.05c11.9-3.81,24.07-2.77,36.15-.4,1.38.27,2.74.62,4.11.94.14,0,.25.2.54.45a7.69,7.69,0,0,1-1,1.16c-9.3,7.26-18.23,14.9-25.37,24.41-.47.63-2.06.8-3,.61-7-1.35-14-2.8-21.19-2.1-4.85.47-9.65,1.5-14.49,2.13-1,.13-2.48-.1-3-.75-7-9.22-15.59-16.69-24.61-23.76-.58-.45-1.14-.93-1.7-1.4Z"/><path class="cls-3" d="M215.63,161.81l-2.21.45-1.6.33,0-.15L210.49,160l-3.74-7.11c-1.13-2.16-2.26-4.3-3.39-6.47,0-.4,0-.8.08-1.2,0-.57.07-1.15.1-1.72-.27-.24-.62-.55-1-.89a19.56,19.56,0,0,0-1.73-1.22,17,17,0,0,0-2.71-1.35,7.52,7.52,0,0,0-1.66-.54,7,7,0,0,0-1-.15h0v1l-1.56-.79-.13-.06h0l-1.46.16-.35.05c-.45,0-.87.11-1.28.18l-.32,0-.57.11-.56.12-.52.12-.49.13-.35.11-.34.11-.22.08-.41.17-.39.18a1,1,0,0,0-.18.1l-.17.08a7,7,0,0,0-.6.4l-.11.09a1.84,1.84,0,0,0-.22.17l-.26.25a1.5,1.5,0,0,0-.11.13l-.23.27-.21.29-.09.15-.18.31a1.3,1.3,0,0,1-.08.17c-.07.17-.15.34-.21.52l-.06.19a1.21,1.21,0,0,0-.05.18,1.46,1.46,0,0,0,0,.2,1.17,1.17,0,0,0-.05.2c0,.13-.06.27-.08.41s0,.29-.07.44c0,.32-.07.66-.09,1a23.52,23.52,0,0,0,0,2.64,24.85,24.85,0,0,0,.59,4.27c0,.22.11.44.16.65s.14.48.21.72.11.34.16.51c.14.4.29.78.45,1.15l.15.35,0,.06.15.31c.09.19.19.38.29.56-.14-.2-.28-.4-.41-.61s-.2-.32-.29-.49c-.2-.33-.38-.68-.55-1a3,3,0,0,1-.18-.36s0-.05,0-.08-.13-.27-.19-.41c-.19-.44-.36-.89-.52-1.37-.07-.19-.14-.39-.2-.6s-.17-.56-.24-.84-.13-.51-.19-.77a30.15,30.15,0,0,1-.7-5,27.13,27.13,0,0,1,0-3.11c0-.42.05-.82.1-1.2,0-.17,0-.35.08-.52s.06-.33.1-.49a1.55,1.55,0,0,0,.05-.23c0-.08,0-.16.07-.23a1.41,1.41,0,0,1,.06-.22c0-.07.05-.15.08-.22a4.67,4.67,0,0,1,.24-.62,1.63,1.63,0,0,0,.09-.19c.07-.12.14-.25.22-.37a.54.54,0,0,1,.11-.18,2.62,2.62,0,0,1,.24-.34,2.69,2.69,0,0,1,.27-.32,1.07,1.07,0,0,1,.14-.16l.29-.29.27-.21.12-.09a5.25,5.25,0,0,1,.72-.47c.13-.08.27-.15.41-.22l.46-.22.49-.19.25-.1.4-.13.42-.13.58-.15c.2-.06.4-.1.62-.15s.43-.1.65-.13l.68-.14.37,0c.49-.09,1-.16,1.52-.22.14,0,.28,0,.42-.06.54-.06,1.12-.13,1.72-.18h0l.07,0c.31,0,.63,0,.95,0,3.72,0,6.92,1.56,8.31,3.78v0l.37.71Z"/><path class="cls-3" d="M195.37,139.35h0v0S195.37,139.36,195.37,139.35Z"/><path class="cls-3" d="M201,143.59h0v0Z"/><path class="cls-4" d="M195.38,139.35V164h0c-.4-.12-.78-.24-1.15-.39s-.74-.29-1.09-.46l-.52-.25-.5-.27c-.17-.09-.33-.19-.49-.29l-.47-.31-.45-.33h0c-.15-.11-.3-.22-.44-.34l-.3-.26-.22-.2q-.33-.3-.63-.63a10.56,10.56,0,0,1-.8-.95,10.78,10.78,0,0,1-.67-1l-.25-.41-.17-.31c-.1-.18-.2-.37-.29-.56l-.15-.31,0-.06c-.05-.12-.11-.24-.16-.35-.16-.37-.3-.75-.44-1.16-.05-.16-.11-.33-.16-.51s-.15-.47-.21-.71-.11-.43-.16-.65a24.85,24.85,0,0,1-.59-4.27,21.36,21.36,0,0,1,0-2.64,7.9,7.9,0,0,1,.09-1l.06-.44c0-.14.05-.28.08-.42a1.33,1.33,0,0,0,0-.19,1.94,1.94,0,0,0,.05-.2c0-.06,0-.13.06-.18l.06-.19a4.71,4.71,0,0,1,.21-.52l.08-.17a2.48,2.48,0,0,1,.18-.31c0-.05.06-.11.09-.15a1.94,1.94,0,0,1,.21-.29,2.88,2.88,0,0,1,.22-.27l.12-.13.26-.25.22-.18.11-.08a5.68,5.68,0,0,1,.6-.4l.16-.09.18-.09c.13-.06.26-.13.4-.18l.41-.17.22-.08.33-.11.35-.11.5-.13.52-.13.55-.11.58-.11.31-.05,1.29-.19a1.15,1.15,0,0,0,.26,0h.09l1.46-.16h0Z"/><path class="cls-5" d="M213.46,162.34l-5.63,1.15-2.24.46-2.24.46-.24.05h0l-.91.19h0v-.2c.06-.85.11-1.69.17-2.52s.12-1.78.17-2.67c.17-2.65.34-5.25.51-7.86.08-1.31.16-2.61.25-3.94v0c0-.34,0-.67.07-1s0-.8.08-1.2c0-.57.07-1.15.1-1.72h0v0l.61,1.16,4.28,8.15,3.73,7.11c.42.78.83,1.58,1.25,2.37A.3.3,0,0,1,213.46,162.34Z"/><path class="cls-3" d="M318.62,146.18a29.19,29.19,0,0,1-.69,5c-.07.26-.13.52-.19.77s-.16.57-.25.84-.13.41-.19.6c-.16.48-.34.93-.53,1.37l-.18.41a.3.3,0,0,1,0,.08c-.05.12-.11.24-.17.36-.17.35-.36.7-.55,1l-.3.49c-.13.21-.26.41-.41.61a5.93,5.93,0,0,0,.29-.56,1.77,1.77,0,0,0,.15-.31s0,0,0-.06.11-.23.16-.35c.16-.37.31-.75.44-1.15.06-.17.12-.34.17-.51s.14-.48.2-.72.11-.43.16-.65a27.62,27.62,0,0,0,.62-6.91c0-.35,0-.69-.09-1,0-.15-.05-.3-.07-.44s-.05-.28-.08-.41a1.94,1.94,0,0,1-.05-.2,1.46,1.46,0,0,1-.05-.2l-.06-.18-.06-.19a4.71,4.71,0,0,0-.21-.52,1.3,1.3,0,0,0-.08-.17l-.17-.31a1.3,1.3,0,0,0-.1-.15,3,3,0,0,0-.2-.29l-.23-.27-.12-.13-.25-.25-.22-.17-.11-.09a7.15,7.15,0,0,0-.61-.4l-.16-.08-.18-.1-.4-.18-.41-.17-.21-.08-.34-.11-.35-.11-.5-.13-.52-.12L311,140l-.58-.11-.31,0q-.61-.11-1.29-.18l-.35-.05-1.45-.16h0l-.13.06-1.56.79v-1h0a7.11,7.11,0,0,0-1,.15,7.7,7.7,0,0,0-1.66.54,17,17,0,0,0-2.71,1.35c-.81.51-1.42,1-1.73,1.22s-.78.65-1.05.89c0,.57.07,1.15.11,1.72,0,.4,0,.8.08,1.2l-3.4,6.47L290.17,160c-.43.8-.85,1.62-1.29,2.45l-.05.15-1.6-.33-2.2-.45,11.66-22.65.36-.71v0c1.4-2.22,4.59-3.78,8.32-3.78.32,0,.63,0,.95,0l.07,0h0c.6,0,1.17.12,1.72.18l.41.06c.54.06,1,.13,1.52.22l.38,0,.68.14c.22,0,.44.08.65.13s.42.09.62.15l.58.15.41.13.4.13.26.1.48.19.47.22c.14.07.28.14.41.22a5.82,5.82,0,0,1,.71.47l.13.09.26.21.3.29.14.16a4,4,0,0,1,.26.32,2.7,2.7,0,0,1,.25.34,1.42,1.42,0,0,1,.11.18c.07.12.15.25.21.37l.09.19a4.73,4.73,0,0,1,.25.62l.07.22c0,.07.05.14.07.22l.06.23.06.23.09.49c0,.17.06.35.08.52,0,.38.09.78.11,1.2A27.3,27.3,0,0,1,318.62,146.18Z"/><path class="cls-3" d="M305.29,139.35v0Z"/><path class="cls-6" d="M315.63,149.11a25.87,25.87,0,0,1-.59,4.27c-.06.22-.11.44-.17.65s-.13.48-.2.71-.11.35-.17.51a12.15,12.15,0,0,1-.44,1.16c-.05.11-.1.23-.16.35a.09.09,0,0,1,0,.06,2.92,2.92,0,0,1-.14.31c-.1.19-.19.38-.29.56l-.18.31c-.08.14-.16.28-.25.41-.21.33-.43.65-.66,1a10.56,10.56,0,0,1-.8.95c-.21.22-.41.43-.63.63l-.23.2a3.73,3.73,0,0,1-.3.26l-.43.34h0l-.45.33-.47.31-.48.29-.51.27-.52.25c-.35.17-.71.32-1.08.46s-.76.27-1.15.39h0V139.35h0l1.45.16h.1a1.07,1.07,0,0,0,.25,0l1.29.19.32.05.57.11.55.11.53.13.49.13.35.11.34.11.21.08.41.17c.14.05.27.12.4.18l.18.09.17.09c.21.13.41.26.6.4l.11.08.22.18.25.25.12.13a3.47,3.47,0,0,1,.43.56.78.78,0,0,1,.1.15l.17.31a1.3,1.3,0,0,1,.08.17,4.71,4.71,0,0,1,.21.52l.06.19.06.18c0,.06,0,.13.05.2s0,.13.05.19.06.28.08.42.05.29.07.44c0,.32.07.65.09,1A26.17,26.17,0,0,1,315.63,149.11Z"/><path class="cls-7" d="M298.47,164.65h0l-.92-.19h0l-.23-.05-2.24-.46-2.24-.46-5.64-1.15a.3.3,0,0,0,0-.08l1.25-2.37,3.73-7.11c1.44-2.72,2.84-5.41,4.28-8.15.21-.38.41-.77.61-1.16v0h0c0,.57.07,1.15.11,1.72,0,.4,0,.8.08,1.2s0,.68.06,1v0c.08,1.33.17,2.63.25,3.94.16,2.61.33,5.21.5,7.86l.18,2.67c.05.83.11,1.67.16,2.52Z"/><path class="cls-8" d="M201,143.59h0v0Z"/><path class="cls-3" d="M181.74,163.17c3.39,6.06,9.63,8.38,16.88,6.75,3.91-.86,7.66-2.31,13.21-4l4.71-.43c-1.69.79-3.24,1.45-4.52,2-4.73,2-10.09,4.31-17.48,5a34.47,34.47,0,0,1-9.58,0c-3.37-.61-8.1-1.47-9.49-4.51-1.71-3.74,2.61-8.64,3.77-10.82A25.82,25.82,0,0,0,181.74,163.17Z"/><path class="cls-3" d="M241.39,285.26c0,.58-.1,1.16-.16,1.75-.14,1.35-.3,2.78-.53,4.28a62.92,62.92,0,0,1-18.33-4.37c-3.36-1.4-5.93-3.05-7.8-5.62a16.41,16.41,0,0,1-2.39-4.93A282.44,282.44,0,0,0,200.75,247c-.09-.22-.19-.44-.28-.65-1.9-4.32-5-8.17-8-11.91a17,17,0,0,0-6.14-4.89,23.06,23.06,0,0,1-7.41-5c-3.86-3.92-5.76-9.1-6.21-15.3-.25-3.38-.53-6.78-.5-10.16a2.68,2.68,0,0,0-2.2-3,53.09,53.09,0,0,0-16.4-2.53c-.68,0-1.36,0-2.05,0a7.23,7.23,0,0,1-1.66,2.92,8.09,8.09,0,0,1-3.12,2.19,27.75,27.75,0,0,1-3.25.92,18.07,18.07,0,0,0-3.85,1.42,18.92,18.92,0,0,0-7.14,6.57c-3.4,5.11-5,11.53-6.18,16.38l0,.12c-.14.59-.27,1.19-.4,1.78,0,.16-.07.32-.1.49-.12.58-.23,1.17-.34,1.76,0,.21-.07.43-.11.65-.08.56-.17,1.12-.25,1.68,0,0,0,.07,0,.11s0,.28-.05.42c-.06.47-.11.94-.16,1.41,0,.14,0,.28,0,.43s0,.31,0,.46c0,.51-.09,1-.12,1.54l0,.61c0,.53-.06,1.06-.07,1.59,0,.17,0,.35,0,.52,0,.51,0,1,0,1.53l0,1.79,0,.68c0,.78.08,1.57.14,2.37v.14a.06.06,0,0,1,0,0c0,.72.13,1.44.2,2.16,0,.05,0,.09,0,.13.17,1.57.4,3.15.68,4.73.13.73.26,1.46.41,2.19s.3,1.43.46,2.15l.09.38c.14.61.29,1.21.44,1.81,0,.15.07.31.12.47.18.72.38,1.44.58,2.17,0,.13.07.26.11.38v0h.46c5.82,17.44,20.58,27,31.8,31.9a30.41,30.41,0,0,0,5.23,4.84c.59.42,1.8,1.3,3.38,2.23,0,.59,0,1.19.08,1.78a43.89,43.89,0,0,0,1.68,9.41c2.59,9.21,6.54,14.31,11.61,22.12a251.1,251.1,0,0,1,21.07,40.69c1.76,4.36,3.13,8.2,4.22,11.69.68,2.19,1.26,4.25,1.74,6.23.74,3,1.28,5.76,1.69,8.5A102.17,102.17,0,0,1,212,412.32l-2.21-1.6A118.1,118.1,0,0,0,199.26,380c-4.52-8.63-11.1-17.54-24.27-35.36-9.4-12.71-14.1-19.07-15.8-21.1a199.91,199.91,0,0,1-14.5-20.21l-.62-1c-1.22.06-2.45.1-3.69.1a70.9,70.9,0,0,1-12.1-1,39.39,39.39,0,0,1-16.35-10.24l-6.07-8.56-3.19-4.52c-1.35-1.72-3-3.81-4.76-6.21a344.23,344.23,0,0,1-21.63-32.26l-1.17-2a.88.88,0,0,0-.07-.13l-.1-.18q-.1-.18-.21-.39h0l-.13-.23h0l-.12-.24-.13-.23c0-.09-.08-.18-.13-.27l-.2-.39c0-.06,0-.12-.08-.17a1.86,1.86,0,0,0-.1-.2l-.09-.2-.11-.23c0-.06-.05-.12-.08-.17a.91.91,0,0,0-.07-.14l-.08-.17a1,1,0,0,0,0-.1.36.36,0,0,1,0-.07,1.24,1.24,0,0,0-.1-.2l-.09-.22c0-.1-.08-.19-.13-.3-.23-.53-.47-1.12-.72-1.75l-.06-.18c-.06-.16-.13-.32-.19-.49a1,1,0,0,1,0-.1c0-.09,0-.18-.09-.27s-.14-.37-.2-.57l0-.15c0-.07-.05-.14-.08-.22a3.38,3.38,0,0,1-.11-.34c0-.08,0-.17-.09-.26-.08-.24-.15-.49-.23-.75a.56.56,0,0,1,0-.12c0-.14-.08-.28-.13-.43s0,0,0,0c0-.16-.08-.31-.13-.46v0c0-.16-.1-.32-.14-.48a2.86,2.86,0,0,0-.07-.28l-.09-.35a0,0,0,0,0,0,0c0-.14-.06-.26-.1-.4s-.07-.28-.1-.42a.3.3,0,0,0,0-.1.43.43,0,0,0,0-.05.11.11,0,0,1,0,0c0-.19-.09-.37-.13-.56s-.06-.3-.1-.45l-.21-1.13a34.11,34.11,0,0,1-.59-6.24c0-.81,0-1.51.1-2.1s.14-1.11.21-1.5a3.55,3.55,0,0,1,.09-.52c0-.15.06-.31.1-.49a1,1,0,0,1,0-.12s0-.06,0-.08,0,0,0,0l.06-.29a.74.74,0,0,0,0-.14l0-.13s0,0,0,0c0-.19.1-.39.17-.6s.07-.22.1-.34l.06-.19c0-.05,0-.11,0-.16l.06-.2a1,1,0,0,0,0-.16c0-.08,0-.15.07-.22a.87.87,0,0,0,.07-.17c0-.07,0-.13.07-.21s0-.12.07-.19l.07-.19c0-.08.06-.15.08-.22a1.42,1.42,0,0,1,.08-.18,1.72,1.72,0,0,1,.1-.26,1.47,1.47,0,0,1,.06-.14,2.58,2.58,0,0,1,.13-.31s0,0,0-.05l.06-.15.05-.12,0-.08s0,0,0,0a.41.41,0,0,0,0-.08c.17-.37.34-.74.54-1.13a3.24,3.24,0,0,1,.17-.32,3,3,0,0,1,.16-.31c0-.09.09-.17.13-.25a.33.33,0,0,1,0-.06h0a.41.41,0,0,1,.05-.09c.15-.28.31-.55.48-.84,0,0,0-.06,0-.09a28.29,28.29,0,0,1,2.41-3.37c2.08-2.78,4.33-5.48,6.7-8.12,9-10,20-17.06,31.71-23.23,16-8.42,32.41-15.73,50.19-19.24,4.83-1,7.59-2.21,7.81-7.64a6.3,6.3,0,0,1,.7-2.46c4.43,3.12,7,6.95,6.26,13A11,11,0,0,0,179,156c-2.2.08-10.71,5.29-10.23,10.83.59,7,15.21,9.67,16,9.8,6.8,1.17,12.3-.36,17.89-1.91a83,83,0,0,0,17.43-7.5c2-1.06,3.6-2,4.82-2.77l-.18.27c1.58,7.81,2.12,15.84,7.68,22.17-4.25.22-8.36.26-12.42.68a24.15,24.15,0,0,0-13.25,5.66c-2.09,1.75-5.44,2.38-8.31,2.72-8.17,1-15.32-1.21-21.84-5.16a57.54,57.54,0,0,1-6.86-4.94c-1.7-1.41-3.29-2.95-5.09-4.29a36.11,36.11,0,0,0,12.12,14.32,3.55,3.55,0,0,1,1.75,3.21c.29,6.77,2.27,12.94,7.87,17l.61.43c11.37,7.62,18.14,18.37,23.05,30.42.8,2,1.56,4,2.28,6.07a111.08,111.08,0,0,1,3.83,12.32c1.69,7.47,5.44,12.73,11.12,15.95a28.83,28.83,0,0,0,8.72,3.1C237.77,284.76,239.58,285,241.39,285.26Z"/><path class="cls-3" d="M294.15,357.5a71.83,71.83,0,0,1-9.37,15.39,38.59,38.59,0,0,1-14,10.8,39.67,39.67,0,0,1-20.18,3,39.68,39.68,0,0,1-20.19-3,37.1,37.1,0,0,1-10.31-6.86,48.5,48.5,0,0,1-7.17-8.59h0A89.91,89.91,0,0,1,207,357.5c-1.87-3.87-3.89-10.34-7.91-23.25-2.06-6.59-2.61-8.79-3.39-11.55,0,0,0,0,0,0q-4-10.59-8-21.2l-1.14-3c5.71-8.84,3.89-28.95-3.66-42.83-2.27-4.17-6.78-12.46-13.86-12.84-6.69-.34-11.77,6.6-12.57,7.71-3.88,5.3-5.5,12.62-5,20.1L145.78,261H146c-.07-.22-.14-.45-.2-.68,0-.07-.05-.14-.07-.22l-.21-.69-.12-.47c-.1-.32-.18-.63-.26-1l-.11-.35-.09-.38c-.13-.49-.26-1-.37-1.47,0-.13-.07-.26-.1-.39l-.27-1.16-.06-.32c-.14-.62-.26-1.23-.38-1.86a.31.31,0,0,0,0-.08,2.56,2.56,0,0,0-.05-.27c0-.07,0-.15,0-.22a.5.5,0,0,0,0-.12l-.12-.68a2,2,0,0,0,0-.24c-.11-.7-.22-1.41-.31-2.13,0,0,0-.08,0-.12a.09.09,0,0,1,0,0c-.08-.71-.16-1.41-.22-2.12,0,0,0-.08,0-.12l0-.23a.45.45,0,0,0,0-.12c0-.29,0-.57,0-.86v-.08c0-.43,0-.86-.06-1.29V243c0-.81,0-1.62,0-2.41a1.77,1.77,0,0,1,0-.23s0-.11,0-.17q0-.61.09-1.23a.49.49,0,0,0,0-.12l.06-.51a.88.88,0,0,1,0-.16,1.1,1.1,0,0,1,0-.18l.06-.45.06-.4s0-.08,0-.12a2.5,2.5,0,0,1,.05-.29c0-.08,0-.15,0-.23v-.07l0-.16.18-.85s0,0,0-.05a.43.43,0,0,0,0,0,25.57,25.57,0,0,1,.84-2.82.87.87,0,0,0,.07-.17l.22-.54a.94.94,0,0,1,0-.09l.27-.58a0,0,0,0,1,0,0c0-.07.07-.13.1-.21s.1-.2.16-.3v0l.42-.77a1.86,1.86,0,0,0,.11-.19l.43-.69a.35.35,0,0,0,.05-.08l.24-.34.31-.42.15-.2.05-.06a2.43,2.43,0,0,1,.2-.25c.07-.1.15-.19.22-.28l.15-.16.07-.08.14-.16c.09-.1.19-.21.3-.31l.08-.09,0-.05.35-.33a1.8,1.8,0,0,1,.2-.19l0,0,.39-.34.08-.06.3-.25.15-.12.13-.1.27-.21.19-.14,0,0,.32-.22.09-.06.06-.05.59-.37,0,0,.12-.06.47-.28.15-.07.19-.1.29-.16.25-.12.23-.11s0,0,0,0l.38-.17.31-.13.08,0,0,0c.2-.08.4-.17.61-.24l.19-.07.05,0,.14,0,.5-.17.14,0,.31-.09.07,0h0l.51-.15.16,0,.13,0,.24-.06.33-.08.53-.13.45-.09.44-.09h.1l.58-.11.3,0,.27,0,.38-.06.17,0,.11,0,.38,0h0l.36,0,.41,0,.28,0,.22,0,.88-.06.52,0,.76,0h1.81l1,0h.34l1,.05.38,0,1.42.11.22,0c0,.13.1.26.16.38.22.26.44.52.65.79l.55.68a104.83,104.83,0,0,1,6.57,8.89h0a29.2,29.2,0,0,0,6.25,3.67,12.46,12.46,0,0,1,4.47,3.61l.43.52a76.71,76.71,0,0,1,5.44,7.48,26.17,26.17,0,0,1,1.56,2.95c2.16,4.89,4.48,10.28,6.69,15.94,1.73,4.43,3.4,9,4.85,13.67a20.49,20.49,0,0,0,3.72,7.07,22,22,0,0,0,8.95,6.19,67.77,67.77,0,0,0,19.45,4.69c-.26,1.3-.56,2.64-.9,4a67.29,67.29,0,0,1-10.78,23.61,4.35,4.35,0,0,0,5.72,6.33,71.24,71.24,0,0,0,16.1-13.88c.67.92,1.44,1.92,2.27,2.93,4.87,5.94,9.75,9.75,14.52,11.34a4.4,4.4,0,0,0,1.39.23,4.35,4.35,0,0,0,3.32-7.17c-.22-.27-5.92-7.39-9.63-21.59l-.44-1.8c-.29-1.22-.58-2.53-.83-3.9,7.77-.93,15.66-3.48,24.35-7.8a8.71,8.71,0,0,0,2.33-1.74,11.57,11.57,0,0,0,2.45-3.91c1.3-3.45,2.52-7,3.72-10.37.91-2.61,1.83-5.26,2.8-7.9.32-.91.66-1.82,1-2.72.78-2.08,1.58-4.14,2.42-6.16,1-2.46,2.07-4.77,3.18-7C304,249,304.53,248,305.1,247c3.68-6.33,8.19-11.19,14.85-14.25a19.07,19.07,0,0,0,2.35-1.3,50.3,50.3,0,0,1,7.3-9.52h0c.11-.31.22-.63.31-.95l.74-.07h.25c.57-.05,1.14-.08,1.69-.11l.63,0c.6,0,1.19,0,1.76,0h.44q.7,0,1.38,0l.55,0,1.51.1.21,0,.53.07.6.07.31,0,.31.06a6.37,6.37,0,0,1,.63.1l.55.1.66.13.48.1.8.21.29.08c.35.09.69.2,1,.31l.32.12c.22.07.45.15.67.24l.37.15.59.25.35.16.57.28.31.17.59.33.17.09.07,0c.27.17.53.33.78.51l.06,0c.28.19.55.39.82.6h0a0,0,0,0,1,0,0c.24.18.47.38.7.58l.15.14c.19.16.37.34.55.51l.16.16c.19.2.38.4.56.61a.46.46,0,0,1,.07.07c.2.24.4.48.59.73l.12.16q.21.27.42.57l.15.24c.12.18.24.35.35.54a2,2,0,0,1,.14.25q.19.31.36.63l.09.15c.14.28.27.56.4.84v0l.18.4s0,.08,0,.11c.17.41.33.82.47,1.24a1.59,1.59,0,0,1,.07.2c.15.44.28.9.4,1.36a.5.5,0,0,1,0,.13c.12.48.23,1,.32,1.45l0,.11q.14.75.24,1.5v.1c.06.52.12,1,.16,1.55a.41.41,0,0,1,0,.11c0,.52.07,1,.08,1.57v.12c0,.52,0,1,0,1.58V243c0,.53,0,1.06-.06,1.59v.05a.81.81,0,0,0,0,.16c0,.23,0,.47,0,.71a.92.92,0,0,1,0,.16v.23l0,.22-.06.75,0,.11h0a74.38,74.38,0,0,1-3,14l-3.79,6.42a28.73,28.73,0,0,0-5-15.63c-.81-1.1-5.89-8-12.57-7.7-7.08.37-11.6,8.67-13.86,12.83-6.9,12.67-9,30.53-5,40.28h0c-2.55,6.4-4.78,12.35-7.16,19.76s-2,7.16-5.15,17.32C298,347.16,296,353.63,294.15,357.5Z"/><path class="cls-3" d="M289.36,165.89c5.55,1.72,9.3,3.17,13.21,4,7.25,1.63,13.49-.69,16.88-6.75a28,28,0,0,0,2.12-4.73c1.63,2.48,4.38,6.4,3,9.51s-6.12,3.9-9.48,4.51a34.56,34.56,0,0,1-9.59,0c-7.39-.71-12.75-3-17.48-5-1.35-.59-3-1.29-4.81-2.14Z"/><path class="cls-3" d="M430.75,216.86c0,.65,0,1.4-.08,2.21s-.16,1.71-.31,2.68c-.05.27-.09.57-.14.86,0,.1,0,.2-.05.3h0c-.05.29-.11.57-.17.86h0l0,.17c-.1.47-.2.94-.31,1.39v0a.14.14,0,0,0,0,.06c-.22,1-.48,1.87-.74,2.74a.32.32,0,0,1,0,.09c0,.16-.09.31-.14.45s0,.09,0,.13-.09.29-.14.44l0,.09c-.43,1.31-.89,2.5-1.33,3.54h0l-.33.76a0,0,0,0,1,0,0l-.21.47c0,.09-.08.19-.13.28s0,0,0,.06a.88.88,0,0,0-.09.2c-.11.22-.21.42-.3.62s-.11.23-.17.34h0c-.23.46-.45.86-.62,1.18l-.19.33h0c0,.07-.07.12-.1.18a1.16,1.16,0,0,1-.13.22l-1.32,2.3a347.94,347.94,0,0,1-21.27,31.71c-1.88,2.51-3.55,4.68-5,6.46l-1.54,2.17L393,284.17a44,44,0,0,1-14,11l0-.06a70,70,0,0,1-8.08,3.4c-1.51.52-3,1-4.59,1.42a68.05,68.05,0,0,1-7.16,1.58l-.18,0a197.63,197.63,0,0,1-15.63,22c-1.69,2-6.39,8.39-15.79,21.1-13.18,17.82-19.75,26.73-24.26,35.36a114,114,0,0,0-9.86,27.47l-2.8,2c.18-2.88.56-6.29,1-9.38,1.13-7.42,3.13-15.19,7.65-26.42A251.1,251.1,0,0,1,320.5,333c5.07-7.81,9-12.91,11.62-22.12a45.79,45.79,0,0,0,1.67-9.41c0-.11,0-.24,0-.36l-.48-.1c1.63-.95,2.88-1.85,3.49-2.29a31.23,31.23,0,0,0,7.72-8.16C355,285.2,366.93,276,372,260.7h.07l.12-.41c.17-.61.34-1.22.49-1.82a2,2,0,0,0,.09-.33c0-.05,0-.1,0-.15.15-.59.29-1.17.43-1.76,0-.08,0-.17.07-.26.15-.66.3-1.33.44-2a.59.59,0,0,1,0-.14c.12-.59.24-1.17.35-1.75,0-.16.06-.31.08-.47.09-.54.19-1.07.28-1.6,0-.1,0-.21,0-.31.1-.62.19-1.23.27-1.84,0-.17,0-.34.07-.51L375,246c0-.22,0-.43.07-.65,0-.45.08-.91.11-1.36,0-.26,0-.54.06-.81,0-.43.05-.86.07-1.29s0-.6,0-.89,0-.56,0-.83,0-.67,0-1v-.42c0-.81,0-1.61-.05-2.41v-.2c0-.68-.07-1.36-.12-2a.71.71,0,0,0,0-.15c-.05-.69-.11-1.39-.19-2.07a.22.22,0,0,0,0-.08c-.16-1.43-.36-2.87-.62-4.31-.22-1.18-.48-2.37-.77-3.55a72.08,72.08,0,0,0-3.5-11.33c-2-4.74-5-9.18-9.82-11.62-2.61-1.34-4.66-1.52-6.52-2.14h0a8.09,8.09,0,0,1-3.7-2.39,7.64,7.64,0,0,1-1-1.27,9.44,9.44,0,0,1-.72-1.64,57,57,0,0,0-14.27,1.32c-1.28.29-2.55.62-3.82,1-2,.6-2.61,1.47-2.71,3.62a142,142,0,0,1-1.56,15.54,16.32,16.32,0,0,1-4.71,9.45,13.38,13.38,0,0,1-3.55,2.38c-9.32,4.29-14.8,11.66-18.95,20.05-1,2.11-2,4.28-2.93,6.49-3.73,8.94-6.61,18.22-10,27.3a3.68,3.68,0,0,1-.24.55,6,6,0,0,1-2.4,2.73c-7.45,3.71-15.11,6.49-23.35,7.41q-.44-3-.74-6.25a62.58,62.58,0,0,0,6.61-1.26,27.18,27.18,0,0,0,6.82-2.63c5.42-3,9.05-7.92,10.73-14.75A134.89,134.89,0,0,1,289.92,247q2.2-5.25,4.77-10.33a51.53,51.53,0,0,1,16.7-18.78q.94-.67,1.8-1.38c5.48-4.59,8-10.58,8.3-17.88A3.76,3.76,0,0,1,323,196.1a34.37,34.37,0,0,0,9-9.18,38,38,0,0,0,3.1-5.53l-1.57,1.47c-.69.66-1.39,1.31-2.1,1.94a54.62,54.62,0,0,1-8.39,6.26,33.21,33.21,0,0,1-12.4,4.5c-4.33.63-8.9.14-13.29-.39-1.87-.22-3.75-1.62-5.3-2.89-4.78-3.9-10.46-4.79-16.3-5.14-2.69-.17-5.39,0-8.43,0,5.71-6.54,6.35-14.52,7.88-22.6a0,0,0,0,1,0,0c1.21.73,2.83,1.69,4.76,2.74a82.9,82.9,0,0,0,17.44,7.5c5.58,1.55,11.08,3.08,17.88,1.91.78-.13,15.4-2.77,16-9.8.41-4.82-6-9.4-9.1-10.55a11.33,11.33,0,0,0,.19-3.51c-.66-5.58,1.49-9.28,5.34-12.28a14.32,14.32,0,0,1,1,4.93,3.69,3.69,0,0,0,.76,2.51,4.4,4.4,0,0,0,2.71,1.19c15.56,2.67,30.13,8.41,44.28,15.2,11.08,5.31,22.2,10.73,31.55,18.79a109.72,109.72,0,0,1,19,20.65l-.06.06a.18.18,0,0,1,.05.07s0,0,.05.07l.12.22c.11.17.2.35.3.53l.44.79.36.74s0,0,0,.08c.12.25.23.49.34.74h0c.09.19.17.38.25.57l.06.14.06.16a.13.13,0,0,1,0,.08.36.36,0,0,1,0,.09c0,.1.08.2.11.3a1.54,1.54,0,0,1,.08.19,1.34,1.34,0,0,0,.07.18l.06.16a.58.58,0,0,0,.06.17l0,.14a1.55,1.55,0,0,1,.08.23l.09.26a.65.65,0,0,0,0,.13,2.58,2.58,0,0,0,.08.26l.06.19c0,.05,0,.08,0,.12s0,.11.05.16.05.18.07.27.1.34.14.49a.24.24,0,0,0,0,.08h0s0,.06,0,.08l0,.14a1,1,0,0,1,0,.17,1.13,1.13,0,0,1,0,.15c.1.47.17.83.21,1.06v0A21.31,21.31,0,0,1,430.75,216.86Z"/><path class="cls-9" d="M237.63,227.92l-.17.16-.05-.16Z"/><path class="cls-9" d="M263.45,227.92l-.1.29-.3-.29Z"/><path class="cls-3" d="M247.71,233.13l-2-1.6s-5.78-2-4.39,5.78,4.19,30.1,4.19,30.1,4.78,33.29-13.76,58.41a68.31,68.31,0,0,0,18.61-17.54s8.3,14.35,17.87,17.54c0,0-24.92-29.51-8-92.89,0,0-5.18-2.6-8.18,0s-1.72,32.69-1.72,32.69Z"/></svg>