<svg id="Capa_1" data-name="Capa 1" xmlns="http://www.w3.org/2000/svg" xmlns:xlink="http://www.w3.org/1999/xlink" viewBox="0 0 1127.97 201.21"><defs><style>.cls-1{fill:#1d1d1b;}.cls-2{fill:#e30c17;}.cls-3{fill:url(#Degradado_sin_nombre_26);}.cls-4{fill:#fff;}.cls-5{fill:url(#Degradado_sin_nombre_36);}.cls-6{fill:url(#Degradado_sin_nombre_36-2);}.cls-7{fill:url(#Degradado_sin_nombre_36-3);}.cls-8{fill:url(#Degradado_sin_nombre_36-4);}.cls-9{fill:url(#Degradado_sin_nombre_26-2);}</style><radialGradient id="Degradado_sin_nombre_26" cx="81.4" cy="58.53" r="0" gradientUnits="userSpaceOnUse"><stop offset="0" stop-color="#fff"/><stop offset="0.34" stop-color="#fdfdfd"/><stop offset="0.53" stop-color="#f5f5f5"/><stop offset="0.68" stop-color="#e7e7e7"/><stop offset="0.81" stop-color="#d3d3d3"/><stop offset="0.92" stop-color="#bababa"/><stop offset="0.96" stop-color="#b2b2b2"/></radialGradient><radialGradient id="Degradado_sin_nombre_36" cx="80.39" cy="63.19" r="3.61" gradientUnits="userSpaceOnUse"><stop offset="0.01" stop-color="#fff"/><stop offset="0.22" stop-color="#fbfbfb"/><stop offset="0.41" stop-color="#f0f0f0"/><stop offset="0.6" stop-color="#dcdcdc"/><stop offset="0.79" stop-color="#c1c1c1"/><stop offset="0.88" stop-color="#b2b2b2"/></radialGradient><radialGradient id="Degradado_sin_nombre_36-2" cx="87.1" cy="64.09" r="3.23" xlink:href="#Degradado_sin_nombre_36"/><radialGradient id="Degradado_sin_nombre_36-3" cx="126.18" cy="63.19" r="3.61" xlink:href="#Degradado_sin_nombre_36"/><radialGradient id="Degradado_sin_nombre_36-4" cx="119.46" cy="64.09" r="3.23" xlink:href="#Degradado_sin_nombre_36"/><radialGradient id="Degradado_sin_nombre_26-2" cx="84.51" cy="60.1" r="0" xlink:href="#Degradado_sin_nombre_26"/></defs><polygon class="cls-1" points="279.77 112 320.06 56.85 298.11 56.85 249.59 123.56 249.59 56.85 232.02 56.85 232.02 177.78 269.16 126.85 301.19 164.93 324.33 164.93 279.77 112"/><path class="cls-1" d="M758.45,57.19,707.19,165.7h18.24l10.86-22.89h42.29l10.29,22.89h18ZM744,126.43l13.91-29.57,13.28,29.57Z"/><path class="cls-1" d="M397.38,56.21c-31.58,0-57.1,24.54-57.1,54.7s25.52,54.56,57.1,54.56,57.26-24.39,57.26-54.56S429,56.21,397.38,56.21Zm-9.49,89.88c-16.36-4.07-28.64-18.29-28.64-35.18s12.28-31.26,28.64-35.32Zm19.14,0V75.59c16.37,4.06,28.47,18.29,28.47,35.32S423.4,142,407,146.09Z"/><path class="cls-1" d="M657.57,118c11.13-3,25.2-10.63,25.2-30,0-31.89-38.29-31.89-38.29-31.89H606.36V74.34l18.16,27.35H606.36v63.78h19.15V119.83h11l29.77,45.64h22.42ZM629.1,74.34h15.38s19.15,0,19.15,13.6c0,10.78-11.62,13.13-16.69,13.59Z"/><path class="cls-1" d="M557.53,109.48c7.78-4.06,12.74-12,12.74-23.79,0-14.38-6.07-24-18.85-27.52l-8.27,13.22c7.85,2,10.41,7.24,10.41,15.82,0,9.62-4.81,15.86-16.89,15.86H505.55V70.51H513l-8.65-13.83H487.51V165.31h54c21.52,0,32.94-10.29,32.94-31.37C574.41,119.43,567.79,112.51,557.53,109.48Zm-19.87,42.34H505.55V116.56h30.29c15.4,0,20.36,5.57,20.36,16.7C556.2,146.93,550.41,151.82,537.66,151.82Z"/><polygon class="cls-1" points="566.53 23.43 545.53 57.04 537.07 70.56 528.46 84.33 528.25 84.33 519.61 70.51 510.96 56.68 490.17 23.43 528.36 54.98 566.53 23.43"/><path class="cls-1" d="M812.67,50.07h71.89V71.69H861v93.68H835.65V71.69h-23Z"/><path class="cls-1" d="M885.4,80.06h23.82v54.8q0,8.29,1.52,11.08c1,1.86,3.21,2.79,6.59,2.79q4.65,0,7.06-2.28a10.12,10.12,0,0,0,2.91-6.3q.51-4,.51-16.54V80.06h23.82v85.31H929.24V153.72q-5.07,8.7-10.09,11.06a27.6,27.6,0,0,1-11.87,2.37q-9.21,0-14.11-3.8a17.15,17.15,0,0,1-6.33-9.63q-1.44-5.83-1.44-18.17Z"/><path class="cls-1" d="M969.11,50.07h23.4v38q6.91-9.21,17.71-9.21,11.81,0,19.64,10.65t7.85,32.69q0,21.2-7.68,33.07t-22.43,11.87q-14.51,0-19.9-12.93a56.7,56.7,0,0,0-4.48,11.15H969.11Zm23.4,79.86q0,11.72,2.19,16.19t7.74,4.47q6.13,0,8.41-6.37t2.27-21.46q0-14.6-2.18-21.34t-8.08-6.75q-10.35,0-10.35,15.6Z"/><path class="cls-1" d="M1117.28,126.68h-44.69v4.72q0,11.44,3.12,15.32a10,10,0,0,0,8.16,3.87q10.86,0,12.21-14.53l21.2,1.35q-5.65,29.75-33.83,29.74-17.39,0-26.41-11.74T1048,124q0-22.22,9.58-33.91t25.69-11.7a32,32,0,0,1,24.25,10.34Q1117.28,99.06,1117.28,126.68Zm-22.47-13.76c0-1,.08-1.81.08-2.37q0-16.47-11.1-16.47-10.95,0-11,18.84Z"/><rect class="cls-2" x="8.01" y="5.46" width="190.3" height="190.3" rx="93.87"/><polygon class="cls-3" points="81.4 58.53 81.4 58.53 81.4 58.53 81.4 58.53"/><polygon class="cls-4" points="117.78 153.19 109.91 165.78 106.74 170.84 103.52 176 103.44 176 100.2 170.82 96.96 165.64 89.18 153.19 103.48 165.01 117.78 153.19"/><path class="cls-4" d="M177.26,85.72l0-.15c0-.1-.06-.32-.12-.6v-.06l0-.13a.06.06,0,0,1,0,0,.24.24,0,0,1,0-.08c0-.06,0-.12-.05-.18v0a1.62,1.62,0,0,1-.06-.22.08.08,0,0,1,0,0c0-.08-.05-.16-.08-.25l0-.11s0,0,0-.06l0-.12-.06-.18v0a1,1,0,0,1,0-.1.14.14,0,0,0,0-.06h0a.88.88,0,0,1,0-.15l-.06-.15a1.67,1.67,0,0,0-.08-.2.64.64,0,0,0,0-.07l-.07-.18,0-.06-.06-.14c0-.09-.07-.17-.11-.26L176,81.7l-.11-.21-.1-.21,0-.06,0-.09-.19-.36a6.34,6.34,0,0,0-.49-.88,46.86,46.86,0,0,0-8.17-8.9c-4.2-3.62-9-5.92-13.22-7.94A72.8,72.8,0,0,0,138,57.32a9.72,9.72,0,0,0-5.41-5.75h0c-1.18-.52-2.6-1.11-4.1-1.65h0a9.75,9.75,0,0,0-3.27-.57,9.49,9.49,0,0,0-2.25.27,6.12,6.12,0,0,0-.76-.24l-.25-.06c-.46-.11-1-.24-1.54-.35a42.79,42.79,0,0,0-8.31-.91,26.49,26.49,0,0,0-8.18,1.22,2.24,2.24,0,0,1-.75.16,2.31,2.31,0,0,1-.77-.16,25.37,25.37,0,0,0-8-1.22,40,40,0,0,0-6.21.53c-1,.15-1.94.34-2.85.52l-1.12.23a6.2,6.2,0,0,0-.87.24,8.75,8.75,0,0,0-2.1-.26,8.31,8.31,0,0,0-2.87.51,38.71,38.71,0,0,0-6.18,2.74,8.83,8.83,0,0,0-3.81,4.79A78.53,78.53,0,0,0,48.79,65,47.66,47.66,0,0,0,35.2,75c-1,1.15-1.94,2.25-2.77,3.35a15.4,15.4,0,0,0-1.3,1.83v0l-.07.12,0,0c-.05.1-.12.21-.19.34a1.62,1.62,0,0,0-.1.18s0,0,0,0l-.1.18h0l0,.06a.08.08,0,0,0,0,0l-.09.17c-.1.19-.19.39-.29.6l0,.08-.06.14h0a.36.36,0,0,1,0,.09c0,.08-.06.14-.07.18l0,.1a.69.69,0,0,0,0,.1s0,.11-.07.17,0,0,0,0,0,.09,0,.13h0c0,.09-.07.19-.1.28h0l-.05.12a.14.14,0,0,1,0,.07.06.06,0,0,0,0,0l-.06.17,0,.09a.25.25,0,0,1,0,.07l-.06.2h0c0,.14-.07.25-.09.35s0,.08,0,.13,0,.1,0,.15,0,.1,0,.17l-.06.31v.12c0,.13-.05.25-.07.37,0,.3-.09.61-.12.94s-.06.86-.07,1.31a18.41,18.41,0,0,0,.32,3.37.11.11,0,0,0,0,0l.09.49v0c0,.07,0,.13,0,.19a2,2,0,0,0,.06.26,2,2,0,0,0,.06.26l0,.15v0a.08.08,0,0,0,0,0l0,.14,0,.13a.43.43,0,0,0,0,0l0,.12h0a.3.3,0,0,0,0,.12,1.17,1.17,0,0,0,.06.2,1.82,1.82,0,0,0,.07.25h0c0,.06,0,.12.05.18l0,0,.09.28s0,.09,0,.14,0,.09.05.13,0,.13.07.2l.06.19h0a.26.26,0,0,0,0,.08,1.27,1.27,0,0,0,.06.18s0,.07,0,.11a.69.69,0,0,0,0,.1l.06.16c.09.23.2.52.34.82a.77.77,0,0,0,.07.16s0,0,0,0v0l0,.08,0,0L31,97a.61.61,0,0,1,.05.12l0,0,0,.06,0,0,0,0a.25.25,0,0,0,0,.07,1,1,0,0,0,0,.1l.06.12a.91.91,0,0,1,.07.14l.14.27h0l0,0a.93.93,0,0,1,0,.1l.09.16,0,.09.09.16a.08.08,0,0,1,0,0h0l.48.82a137.72,137.72,0,0,0,8.57,12.79c.59.79,1.2,1.57,1.8,2.35l1.14,1.61h0l2.31,3.26a7.11,7.11,0,0,0,.49.6,20.51,20.51,0,0,0,8.51,5.34,5,5,0,0,0,.76.19,32.63,32.63,0,0,0,4,.44c2.34,3.46,4.43,6,4.54,6.09h0c.56.66,2.76,3.64,5.81,7.76v0c4.83,6.54,7.25,9.81,8.77,12.72a36.12,36.12,0,0,1,2.15,5.11l3.22,2a39.59,39.59,0,0,0-3.13-8.26c-1.61-3.08-4.07-6.41-9-13l0,0c-3.19-4.31-5.3-7.17-5.9-7.89a76.18,76.18,0,0,1-5.09-7,29.8,29.8,0,0,1-4.92-.43,3.06,3.06,0,0,1-.41-.1,18,18,0,0,1-7.45-4.68,4.15,4.15,0,0,1-.27-.32l-3.48-4.92c-.61-.78-1.21-1.57-1.81-2.36a135.28,135.28,0,0,1-8.41-12.55l-.46-.8h0v0a1.25,1.25,0,0,1-.08-.12s0-.07-.06-.11,0-.07,0-.1h0a.16.16,0,0,1,0-.07l0-.07,0,0,0,0s-.05-.1-.08-.16v0s0-.09-.07-.14l0-.09,0-.08s0,0,0-.06l0-.08,0,0h0s0,0,0,0l-.05-.09a0,0,0,0,0,0,0l-.07-.15a.08.08,0,0,0,0-.05l0-.07,0,0s0,0,0,0a.61.61,0,0,1-.05-.12h0l-.31-.75,0-.13a.5.5,0,0,1,0-.13.36.36,0,0,1,0-.09l0-.09v0l0-.09v0l-.06-.17a1.62,1.62,0,0,0-.06-.17.56.56,0,0,0,0-.12l0-.11-.09-.26v-.06a.42.42,0,0,1,0-.1h0l0-.07c0-.05,0-.1,0-.16l0,0c0-.06,0-.11,0-.16a.53.53,0,0,1,0-.12v0a.29.29,0,0,1,0-.09s0,0,0,0l0-.14,0-.09s0,0,0-.06v0l0-.11c0-.06,0-.13,0-.2a0,0,0,0,1,0,0c0-.08,0-.15-.05-.23a.85.85,0,0,0,0-.17v0l-.09-.47v0a16.85,16.85,0,0,1-.27-2.91,9.38,9.38,0,0,1,.06-1.08c0-.27.06-.53.1-.77,0-.07,0-.17.05-.29h0v-.05a.29.29,0,0,0,0-.09c0-.06,0-.12,0-.18s0,0,0,0l0-.13,0-.1v0a.29.29,0,0,0,0-.09l.09-.32h0a.57.57,0,0,1,0-.14.43.43,0,0,1,0,0l0-.1s0-.09.05-.13v0a.24.24,0,0,1,0-.08l0-.07v0h0l.07-.19s0,0,0,0h0l0-.1s0,0,0,0l0-.11,0-.1,0-.07h0l.06-.15h0s0,0,0,0a0,0,0,0,0,0,0s0,0,0,0l0-.07,0-.07c.09-.18.17-.36.25-.53s0-.08.07-.13h0s0,0,0,0l0-.09A.83.83,0,0,0,33,82.1h0l.09-.16.18-.31v0l.05-.08h0a14.38,14.38,0,0,1,1.12-1.58c.8-1.06,1.68-2.12,2.67-3.23A45.5,45.5,0,0,1,50,67.21c5.19-2.73,12.14-6.07,19.91-7.6l.59-.14a6.13,6.13,0,0,1,2.91-4.72,37.4,37.4,0,0,1,5.81-2.56,6.08,6.08,0,0,1,4.3.1,3,3,0,0,1,1.14-.48l1.14-.23c.88-.18,1.79-.36,2.73-.51,3.58-.54,8.3-1,13.08.6a4.41,4.41,0,0,0,3.08,0c5.54-1.77,11-1.06,15.23-.24.51.1,1,.22,1.44.33l.25.06a3,3,0,0,1,1.1.51,7,7,0,0,1,4.93-.05c1.44.52,2.81,1.1,4,1.6a7.19,7.19,0,0,1,4.37,5.59,67.52,67.52,0,0,1,16.61,5.85c4.08,2,8.71,4.17,12.66,7.57a44.39,44.39,0,0,1,7.73,8.43,2.5,2.5,0,0,1,.31.55s0,0,0,.05l.2.37a.08.08,0,0,1,0,0l0,.07a1.86,1.86,0,0,1,.1.2s.05.09.07.14l.15.33c0,.08.07.16.1.23a1,1,0,0,1,0,.1s0,0,0,0v0l0,.12h0a.14.14,0,0,0,0,.06s0,0,0,0h0a.88.88,0,0,1,0,.15.61.61,0,0,1,.05.12l0,.09s0,0,0,0,0,0,0,0l0,.1,0,0a.76.76,0,0,0,0,.11s0,.06,0,.09a.19.19,0,0,1,0,.07l0,.08a0,0,0,0,0,0,0h0c0,.06,0,.12.05.18v0a1.8,1.8,0,0,1,.05.19v0l0,.11s0,0,0,0a.13.13,0,0,0,0,.06.11.11,0,0,0,0,.05s0,.06,0,.09v.05c0,.22.08.39.1.5s0,.07,0,.1a10.58,10.58,0,0,1,.14,1.89c0,.34,0,.7,0,1v0c0,.43-.08.84-.14,1.24,0,.1,0,.22-.06.34a.47.47,0,0,1,0,.17h0l-.06.32a.11.11,0,0,1,0,0v.07c0,.2-.09.4-.13.6l0,.12c-.1.4-.2.79-.32,1.17h0a.25.25,0,0,0,0,.07,1.89,1.89,0,0,0-.06.18h0s0,.1-.05.15v.07l0,0c-.16.49-.35,1-.56,1.49a.84.84,0,0,1-.06.14l-.09.21c0,.06,0,.11-.07.17a.08.08,0,0,0,0,.05v0a.3.3,0,0,0,0,.08l0,0s0,.09,0,.13h0a1.63,1.63,0,0,1-.11.23l0,0a.47.47,0,0,1,0,.1l0,.07-.24.46,0,.07v0l-.06.1a.93.93,0,0,1,0,.1h0l-.11.18c-.16.28-.32.57-.49.85a136.3,136.3,0,0,1-8.28,12.35c-.66.88-1.29,1.71-1.88,2.46L160,115.32l-.13.17a19.74,19.74,0,0,1-6.25,4.92l-.31.14a31.14,31.14,0,0,1-3.13,1.3c-.66.23-1.32.43-1.95.6s-1.15.3-1.74.43a79.72,79.72,0,0,1-5.51,7.61c-.61.73-2.71,3.58-5.9,7.89-4.91,6.64-7.37,10-9,13.07a37.55,37.55,0,0,0-3,7.6l3.28-2a35.47,35.47,0,0,1,1.91-4.41c1.53-2.92,4-6.2,8.78-12.73,3.05-4.13,5.25-7.11,5.81-7.78a81.88,81.88,0,0,0,5.14-7l.85-.22c.68-.19,1.38-.41,2.09-.65h0a30.21,30.21,0,0,0,3.31-1.36,3.82,3.82,0,0,0,.46-.21,22.1,22.1,0,0,0,7-5.57l.24-.31,1-1.49.51-.71,1.87-2.45A140.18,140.18,0,0,0,174,99.54h0l.48-.84a1.71,1.71,0,0,0,.13-.23l.06-.11a.41.41,0,0,0,.07-.11l0-.06,0-.06c.07-.13.17-.31.27-.52l.05-.11a.46.46,0,0,0,0-.1v0c.05-.09.09-.18.13-.27l.08-.17h0l.06-.13h0l.12-.28.06-.14.11-.26c.22-.55.42-1.07.6-1.6,0,0,0,0,0-.08s0,0,0,0v0l.06-.17q0-.12.06-.21a.19.19,0,0,0,0-.07v0c.13-.42.24-.85.35-1.28,0-.08,0-.16.05-.23s.1-.41.13-.6h0v-.06a.29.29,0,0,1,0-.09l.06-.33c0-.08,0-.16,0-.23l.06-.38c.07-.46.12-.92.16-1.41v0c0-.41,0-.83,0-1.24A13.08,13.08,0,0,0,177.26,85.72Z"/><path class="cls-4" d="M111.31,68.08c0,3.13-1.38,5.74-3,8.25a6.16,6.16,0,0,0-2.32-.4,4.82,4.82,0,0,0-2.76.66,4.78,4.78,0,0,0-2.75-.66,5.68,5.68,0,0,0-2.48.48c-1.7-2.61-3.08-5.34-3.06-8.59a1.15,1.15,0,0,1,.18-.76l8,1.41h0l8-1.42A2.28,2.28,0,0,1,111.31,68.08Z"/><path class="cls-4" d="M94.94,93.45a9.06,9.06,0,0,1-3.32-3.34,22,22,0,0,1-2.9-9.69,1.67,1.67,0,0,1,1.53-2,5,5,0,0,1,.87-.06c1.94,0,2.12.17,2,2a35.57,35.57,0,0,0,1.5,11.78C94.73,92.52,94.8,92.86,94.94,93.45Z"/><path class="cls-4" d="M111.22,93.17c.41-1.94,1-3.85,1.21-5.81a70.62,70.62,0,0,0,.39-7.56c0-.9.25-1.28,1.08-1.34a9.78,9.78,0,0,1,1.62,0,1.72,1.72,0,0,1,1.77,2.09c-.43,4.12-1.36,8.07-4.18,11.3a19.91,19.91,0,0,1-1.73,1.57Z"/><path class="cls-4" d="M85.19,54.72c1.25-.24,2.5-.53,3.76-.72a25.06,25.06,0,0,1,11.71.48,7.32,7.32,0,0,0,4.91,0c4.52-1.45,9.16-1,13.75-.15.53.1,1.05.23,1.57.36,0,0,.09.07.21.17a3.38,3.38,0,0,1-.4.44,50.56,50.56,0,0,0-9.65,9.29,1.41,1.41,0,0,1-1.15.23,28.53,28.53,0,0,0-8.07-.8c-1.84.18-3.67.58-5.51.81a1.4,1.4,0,0,1-1.13-.28,50.21,50.21,0,0,0-9.37-9L85.17,55Z"/><path class="cls-4" d="M90.07,67l-.83.17-.61.13,0-.06c-.17-.31-.33-.62-.49-.93-.49-.92-1-1.82-1.42-2.71s-.86-1.63-1.29-2.46c0-.15,0-.3,0-.46s0-.43,0-.65l-.4-.34c-.12-.09-.36-.27-.66-.46a6.09,6.09,0,0,0-1-.52,3.43,3.43,0,0,0-.64-.21l-.39,0h0v.37l-.6-.3,0,0h0l-.55.06-.14,0-.49.07-.12,0-.21,0-.22,0-.19,0-.19.05-.14,0-.12,0-.09,0-.15.07-.15.06-.07,0-.06,0a.91.91,0,0,0-.23.15l0,0-.08.07-.1.09,0,.05-.09.1a.76.76,0,0,1-.08.11l0,.06a.75.75,0,0,0-.07.12L78,60a1.67,1.67,0,0,0-.08.2s0,0,0,.07a.19.19,0,0,0,0,.07l0,.08,0,.07,0,.16,0,.17c0,.12,0,.25,0,.38a8.65,8.65,0,0,0,0,1A8.92,8.92,0,0,0,78,63.87l.06.25c0,.09.05.18.08.27l.06.2c.06.15.11.29.17.43l.06.14a0,0,0,0,1,0,0l.06.12a2.12,2.12,0,0,0,.11.21l-.16-.23-.11-.19q-.1-.18-.21-.39l-.06-.14,0,0L78,64.38c-.07-.17-.14-.34-.2-.52s-.05-.15-.07-.23a3,3,0,0,1-.09-.32c0-.1,0-.2-.08-.29a12.17,12.17,0,0,1-.26-1.93,9.4,9.4,0,0,1,0-1.18c0-.16,0-.31,0-.46l0-.19,0-.19,0-.09s0-.06,0-.09l0-.08s0-.06,0-.08a1.73,1.73,0,0,1,.1-.24l0-.07.08-.15,0-.06a.38.38,0,0,1,.09-.13l.1-.12,0-.06.12-.11a.39.39,0,0,1,.1-.08s0,0,0,0l.28-.18.15-.08.18-.08.18-.08.1,0,.15,0,.16-.05.22-.06L79.9,57l.25,0,.25-.05.15,0,.58-.09.15,0,.66-.07h0l0,0,.36,0a3.73,3.73,0,0,1,3.16,1.44h0l.14.27Z"/><path class="cls-4" d="M82.36,58.49h0Z"/><polygon class="cls-4" points="84.52 60.11 84.51 60.11 84.51 60.1 84.52 60.11"/><path class="cls-5" d="M82.37,58.49v9.4h0a3.12,3.12,0,0,1-.43-.15c-.15,0-.28-.11-.42-.17l-.19-.1-.2-.1-.18-.11-.18-.12L80.59,67h0l-.17-.13-.11-.1-.09-.08c-.08-.08-.16-.15-.24-.24a2.6,2.6,0,0,1-.3-.36c-.09-.11-.18-.24-.26-.36l-.09-.16-.07-.12-.11-.21a.61.61,0,0,1-.05-.12l0,0L79,65c-.06-.14-.11-.29-.16-.44s0-.13-.07-.2a2.76,2.76,0,0,0-.08-.27l-.06-.25a9.75,9.75,0,0,1-.22-1.62,8.64,8.64,0,0,1,0-1l0-.38,0-.17,0-.16,0-.07,0-.08a.64.64,0,0,0,0-.07.19.19,0,0,0,0-.07l.08-.2,0-.06.07-.12,0-.06.07-.11.09-.1,0,0,.09-.09.09-.07,0,0a1.14,1.14,0,0,1,.23-.15l.06,0,.07,0,.15-.07.16-.07.08,0,.13,0,.13,0,.19-.05.2,0,.21,0,.22,0,.12,0,.49-.07h.13l.55-.06h0Z"/><path class="cls-6" d="M89.25,67.24l-2.14.44-.86.18L85.4,68l-.09,0h0l-.35.07h0v-.07l.06-1c0-.34,0-.68.07-1,.07-1,.13-2,.19-3,0-.5.07-1,.1-1.5h0l0-.39c0-.15,0-.3,0-.46s0-.43,0-.65h0c.08.15.15.3.23.44l1.63,3.11c.47.88.94,1.78,1.42,2.7l.48.9Z"/><path class="cls-4" d="M129.28,61.09A11.08,11.08,0,0,1,129,63c0,.09,0,.19-.07.29a3,3,0,0,1-.1.32,2,2,0,0,1-.07.23c-.06.18-.13.35-.2.52a1,1,0,0,1-.07.15s0,0,0,0l-.07.14a2.42,2.42,0,0,1-.21.39,1.18,1.18,0,0,1-.11.19,1.88,1.88,0,0,1-.16.23,2.12,2.12,0,0,0,.11-.21l.06-.12a0,0,0,0,0,0,0l.06-.14c.06-.14.12-.28.17-.43l.06-.2a2.76,2.76,0,0,0,.08-.27l.06-.25a9.87,9.87,0,0,0,.23-1.62c0-.38,0-.71,0-1,0-.13,0-.26,0-.38s0-.12,0-.17l0-.16a.19.19,0,0,1,0-.07l0-.08a.19.19,0,0,1,0-.07l0-.07a1.67,1.67,0,0,0-.08-.2l0-.06-.06-.12a.21.21,0,0,1,0-.06.76.76,0,0,0-.08-.11l-.09-.1,0-.05-.1-.09a.27.27,0,0,0-.08-.07l0,0a1.14,1.14,0,0,0-.23-.15l-.06,0-.07,0-.15-.06L127.3,59l-.08,0-.13,0-.13,0-.19-.05-.2,0-.21,0-.22,0-.12,0-.49-.07-.13,0-.56-.06h0l0,0-.59.3v-.37h0l-.39,0a3.31,3.31,0,0,0-.63.21,5.4,5.4,0,0,0-1,.52,6.4,6.4,0,0,0-.66.46c-.17.13-.3.25-.4.34s0,.44,0,.65l0,.46c-.43.83-.86,1.64-1.29,2.46l-1.42,2.71c-.17.31-.33.62-.49.93l0,.06-.61-.13-.84-.17,4.44-8.62.14-.27h0a3.74,3.74,0,0,1,3.16-1.44l.37,0,0,0h0l.65.07.16,0,.58.09.14,0,.26.05.25,0,.23.06.22.06.16.05.15,0,.1,0,.18.08a1,1,0,0,1,.18.08l.16.08.27.18.05,0,.1.08.11.11s0,0,0,.06l.11.12.09.13,0,.06a1.09,1.09,0,0,1,.08.15.25.25,0,0,0,0,.07l.09.24,0,.08a.24.24,0,0,1,0,.08l0,.09a.29.29,0,0,0,0,.09l0,.19a.63.63,0,0,1,0,.19,3.42,3.42,0,0,1,0,.46A9.27,9.27,0,0,1,129.28,61.09Z"/><path class="cls-4" d="M124.2,58.49h0Z"/><path class="cls-7" d="M128.13,62.21a8.8,8.8,0,0,1-.22,1.62l-.06.25c0,.09,0,.18-.08.27l-.06.2c0,.15-.11.3-.17.44l-.06.13s0,0,0,0l-.06.12a2.12,2.12,0,0,1-.11.21l-.06.12-.1.16c-.08.12-.16.25-.25.36a3.65,3.65,0,0,1-.31.36,2.72,2.72,0,0,1-.24.24l-.08.08-.12.1L126,67h0l-.18.12-.17.12-.19.11-.19.1-.2.1-.41.17a3.26,3.26,0,0,1-.44.15h0v-9.4h0l.55.06h.14l.49.07.12,0,.22,0,.21,0,.2,0,.18.05.14,0,.13,0,.08,0,.15.07a.52.52,0,0,1,.15.07l.07,0,.07,0a1.5,1.5,0,0,1,.23.15l0,0,.08.07.1.09,0,0,.09.1a1,1,0,0,0,.08.11l0,.06a.75.75,0,0,1,.07.12l0,.06a1.67,1.67,0,0,1,.08.2.19.19,0,0,1,0,.07.25.25,0,0,1,0,.07l0,.08a.19.19,0,0,1,0,.07l0,.16,0,.17a2.34,2.34,0,0,1,0,.38A6.89,6.89,0,0,1,128.13,62.21Z"/><path class="cls-8" d="M121.61,68.12h0l-.34-.07h0l-.09,0-.85-.17-.85-.18-2.15-.44,0,0c.16-.3.32-.6.47-.9.49-.92,1-1.82,1.42-2.7l1.63-3.11c.08-.14.16-.29.23-.44h0c0,.22,0,.44,0,.65l0,.46c0,.13,0,.26,0,.39h0l.09,1.5c.06,1,.13,2,.19,3,0,.34,0,.68.07,1s0,.63.06,1Z"/><polygon class="cls-9" points="84.52 60.11 84.51 60.11 84.51 60.1 84.52 60.11"/><path class="cls-4" d="M77.18,67.56c1.29,2.31,3.66,3.19,6.42,2.57,1.49-.33,2.92-.88,5-1.54l1.79-.16c-.64.3-1.23.55-1.72.76a20.72,20.72,0,0,1-6.65,1.92,13,13,0,0,1-3.65,0c-1.28-.23-3.08-.55-3.61-1.71-.65-1.42,1-3.29,1.43-4.12A10.35,10.35,0,0,0,77.18,67.56Z"/><path class="cls-4" d="M99.88,114l-.06.66c0,.52-.12,1.06-.2,1.63a23.92,23.92,0,0,1-7-1.66,6.65,6.65,0,0,1-3-2.14,6.72,6.72,0,0,1-.91-1.88,105.65,105.65,0,0,0-4.35-11.19l-.1-.25a22,22,0,0,0-3-4.53,6.51,6.51,0,0,0-2.34-1.86,8.32,8.32,0,0,1-5.18-7.72c-.09-1.29-.2-2.58-.19-3.87a1,1,0,0,0-.84-1.14,20.26,20.26,0,0,0-6.24-1h-.78a2.88,2.88,0,0,1-.63,1.12,3,3,0,0,1-1.19.83,12.25,12.25,0,0,1-1.24.35,6.46,6.46,0,0,0-1.46.54,7.13,7.13,0,0,0-2.72,2.5A20.13,20.13,0,0,0,56.1,90.7a.43.43,0,0,1,0,0c-.06.22-.11.45-.15.68a1.16,1.16,0,0,0,0,.18c0,.22-.09.45-.13.67s0,.17,0,.25-.07.43-.1.64v0a.88.88,0,0,0,0,.16l-.06.54s0,.11,0,.16v.18c0,.19,0,.39-.05.58s0,.16,0,.24l0,.6v.2a5.61,5.61,0,0,0,0,.58c0,.23,0,.46,0,.68a2.26,2.26,0,0,0,0,.26c0,.3,0,.6,0,.9v.06h0c0,.28,0,.55.08.82v0c.06.6.15,1.2.26,1.81l.15.83.18.81,0,.15c.06.23.11.46.17.69a1.21,1.21,0,0,0,0,.18c.07.27.14.55.22.82a.83.83,0,0,0,0,.15h.18C59.08,111.33,64.7,115,69,116.83a11.59,11.59,0,0,0,2,1.84c.23.16.69.5,1.29.85,0,.22,0,.45,0,.68a16.57,16.57,0,0,0,.64,3.58c1,3.5,2.49,5.44,4.42,8.42a95.69,95.69,0,0,1,8,15.48c.67,1.66,1.19,3.12,1.6,4.46.26.83.48,1.61.67,2.36.28,1.14.48,2.2.64,3.24a39,39,0,0,1,.44,4.65l-.84-.61a44.47,44.47,0,0,0-4-11.7c-1.71-3.29-4.22-6.68-9.23-13.46-3.58-4.84-5.37-7.26-6-8a78.87,78.87,0,0,1-5.52-7.69l-.23-.37c-.46,0-.93,0-1.4,0a26.89,26.89,0,0,1-4.61-.39,15,15,0,0,1-6.22-3.89L48.3,113l-1.22-1.72c-.51-.66-1.12-1.45-1.81-2.37A132.48,132.48,0,0,1,37,96.66c-.15-.26-.3-.51-.44-.77l0,0a.43.43,0,0,1,0-.07,1,1,0,0,1-.08-.15h0a.41.41,0,0,1-.05-.09h0a.93.93,0,0,0,0-.1l0-.08a.54.54,0,0,1,0-.11,1,1,0,0,1-.08-.15.33.33,0,0,1,0-.06.25.25,0,0,0,0-.07l0-.08a.36.36,0,0,1,0-.09.21.21,0,0,0,0-.06.14.14,0,0,0,0-.06l0-.06s0,0,0,0v0l0-.07a.36.36,0,0,1,0-.09,1.17,1.17,0,0,1-.05-.11c-.09-.2-.18-.43-.27-.67l0-.06a1.46,1.46,0,0,0-.07-.19v0a.42.42,0,0,0,0-.1,2,2,0,0,0-.08-.22v0a.32.32,0,0,1,0-.09s0-.08,0-.13l0-.1-.09-.28a.43.43,0,0,0,0,0c0-.05,0-.11,0-.16h0c0-.06,0-.12,0-.18h0c0-.06,0-.12-.05-.18l0-.11,0-.13h0a.83.83,0,0,1,0-.15c0-.06,0-.11,0-.16s0,0,0,0v0s0,0,0,0,0-.14,0-.21a1.36,1.36,0,0,1,0-.17c0-.15-.06-.29-.08-.43a13,13,0,0,1-.23-2.38c0-.31,0-.57,0-.8a5.2,5.2,0,0,1,.08-.57s0-.12,0-.2a.8.8,0,0,0,0-.18.09.09,0,0,0,0,0,0,0,0,0,0,0,0v0l0-.11a.07.07,0,0,0,0,0s0,0,0,0v0c0-.07,0-.15.07-.23l0-.12,0-.08a.11.11,0,0,0,0-.06l0-.08s0,0,0-.06a.19.19,0,0,0,0-.08l0-.06a.24.24,0,0,0,0-.08l0-.07,0-.08,0-.08,0-.07,0-.1s0,0,0,0a.61.61,0,0,1,0-.12s0,0,0,0,0,0,0-.06l0,0,0,0h0s0,0,0,0,.13-.28.21-.43l.06-.12.06-.12,0-.1v0h0a.08.08,0,0,1,0,0,3.58,3.58,0,0,1,.18-.32s0,0,0,0a10,10,0,0,1,.91-1.28c.8-1.06,1.65-2.09,2.56-3.09a42.09,42.09,0,0,1,12.06-8.85c6.08-3.2,12.34-6,19.11-7.32,1.83-.36,2.89-.84,3-2.91a2.32,2.32,0,0,1,.27-.93,4.89,4.89,0,0,1,2.38,4.93,3.94,3.94,0,0,0,0,1.23c-.84,0-4.07,2-3.89,4.12.22,2.68,5.79,3.68,6.08,3.73A14.61,14.61,0,0,0,85.13,72a31.65,31.65,0,0,0,6.64-2.86c.74-.4,1.37-.77,1.83-1.06l-.07.11c.6,3,.81,6,2.92,8.44-1.61.08-3.18.1-4.72.26a9.08,9.08,0,0,0-5,2.15,6.35,6.35,0,0,1-3.17,1,12.8,12.8,0,0,1-8.31-2,20.94,20.94,0,0,1-2.61-1.88c-.65-.54-1.25-1.12-1.94-1.63A13.71,13.71,0,0,0,75.28,80a1.36,1.36,0,0,1,.66,1.22c.11,2.58.86,4.92,3,6.48l.24.16c4.32,2.9,6.9,7,8.77,11.58.31.75.6,1.53.87,2.31a43.11,43.11,0,0,1,1.46,4.69,8.81,8.81,0,0,0,4.23,6.07,10.69,10.69,0,0,0,3.32,1.18C98.5,113.84,99.19,113.94,99.88,114Z"/><path class="cls-4" d="M120,141.52a27.51,27.51,0,0,1-3.56,5.86,14.69,14.69,0,0,1-5.34,4.11,15.09,15.09,0,0,1-7.68,1.13,15.09,15.09,0,0,1-7.68-1.13,14.4,14.4,0,0,1-3.93-2.61A19,19,0,0,1,89,145.61h0a33.16,33.16,0,0,1-2.24-4.08,80.15,80.15,0,0,1-3-8.85c-.78-2.5-1-3.34-1.29-4.39v0q-1.51-4-3.06-8.06c-.15-.39-.29-.77-.43-1.15,2.17-3.36,1.48-11-1.4-16.3-.86-1.59-2.58-4.74-5.27-4.89s-4.48,2.52-4.79,2.94a11.63,11.63,0,0,0-1.88,7.65l-2.17-3.67h.09c0-.08,0-.17-.08-.25a.29.29,0,0,1,0-.09c0-.09-.06-.18-.08-.26a1.21,1.21,0,0,1,0-.18c0-.12-.07-.24-.1-.36a.93.93,0,0,1,0-.13.83.83,0,0,0,0-.15c-.05-.19-.09-.37-.14-.56l0-.15-.11-.44s0-.08,0-.12c0-.24-.1-.47-.14-.71a0,0,0,0,1,0,0s0-.07,0-.1,0-.06,0-.09v0c0-.09,0-.18,0-.26v-.09q-.07-.4-.12-.81s0,0,0,0v0c0-.27-.06-.54-.08-.8v-.18c0-.11,0-.22,0-.33v0h0c0-.17,0-.33,0-.49V98c0-.31,0-.62,0-.92V97s0,0,0-.07l0-.47a.06.06,0,0,1,0,0,1.36,1.36,0,0,1,0-.2.13.13,0,0,1,0-.06v-.06l0-.18a.77.77,0,0,1,0-.15.06.06,0,0,1,0,0,.5.5,0,0,1,0-.12s0,0,0-.09v0s0,0,0-.06,0-.22.07-.33h0v0A11.14,11.14,0,0,1,62.94,94l0-.07a1.8,1.8,0,0,0,.08-.21l0,0a1.47,1.47,0,0,1,.1-.22h0s0,0,0-.08l.06-.12h0l.16-.29,0-.07.17-.27s0,0,0,0,.06-.08.09-.13l.11-.16.06-.07,0,0,.08-.09A.76.76,0,0,1,64.1,92l.06-.06s0,0,0,0l.06-.06.11-.12,0,0,0,0,.13-.13.08-.07h0l.15-.13,0,0,.11-.09.06,0,0,0,.11-.08L65.2,91h0l.12-.08,0,0,0,0,.22-.14h0l0,0,.18-.11.05,0,.07,0,.12-.06.09-.05.09,0h0l.15-.06.11,0,0,0h0a2.18,2.18,0,0,1,.23-.09l.08,0a0,0,0,0,0,0,0l.06,0,.19-.06,0,0,.12,0h0l.19,0,.06,0h0l.09,0,.13,0,.2,0,.17,0,.17,0h0l.22,0,.11,0h.11l.14,0h.26l.13,0h.35l.33,0h1.71l.39,0h.15l.54,0H73l.06.14.25.3.21.26A41.43,41.43,0,0,1,76,93.63h0A10.89,10.89,0,0,0,78.38,95a4.9,4.9,0,0,1,1.7,1.37l.16.2a30.26,30.26,0,0,1,2.07,2.85,10.18,10.18,0,0,1,.6,1.12c.82,1.86,1.7,3.91,2.54,6.07.66,1.69,1.29,3.44,1.85,5.2a7.83,7.83,0,0,0,1.41,2.69,8.43,8.43,0,0,0,3.41,2.36,25.39,25.39,0,0,0,7.4,1.78c-.1.5-.21,1-.34,1.53a25.64,25.64,0,0,1-4.1,9,1.65,1.65,0,0,0,1.33,2.64,1.59,1.59,0,0,0,.84-.23,27.09,27.09,0,0,0,6.13-5.28c.26.35.55.73.87,1.11a12.85,12.85,0,0,0,5.52,4.32,1.6,1.6,0,0,0,.53.09,1.69,1.69,0,0,0,1.38-.73,1.67,1.67,0,0,0-.11-2,22.75,22.75,0,0,1-3.67-8.22c-.06-.22-.11-.45-.17-.68-.11-.47-.22-1-.32-1.49a28.17,28.17,0,0,0,9.27-3,3.31,3.31,0,0,0,.89-.67,4.42,4.42,0,0,0,.93-1.49c.5-1.31,1-2.65,1.42-3.94.34-1,.7-2,1.06-3,.13-.35.25-.69.39-1,.29-.79.6-1.57.92-2.34.39-.94.79-1.82,1.21-2.64.2-.41.41-.79.63-1.17A12.45,12.45,0,0,1,129.78,94a8.67,8.67,0,0,0,.9-.5,19,19,0,0,1,2.77-3.62h0c0-.12.08-.24.11-.36l.28,0h.1l.64,0h1.81l.58,0h.08l.2,0,.23,0,.12,0,.11,0,.24,0,.21,0,.26,0,.18,0,.3.07.11,0,.39.12.12.05.26.09.14.06.22.09.14.06.21.11.12.06.23.13.06,0,0,0,.3.19,0,0a3.55,3.55,0,0,1,.31.23h0s0,0,0,0a2.88,2.88,0,0,1,.27.22l.06,0,.21.2.06.06.21.23,0,0,.22.27.05.06c.05.07.1.15.16.22l.06.09a2.39,2.39,0,0,0,.13.21s0,.06.05.09l.14.24,0,.06.15.32h0a1,1,0,0,0,.07.15v0c.07.16.13.32.18.47l0,.08.15.52a.07.07,0,0,1,0,0c0,.18.09.36.13.55v0l.09.57v0a5.9,5.9,0,0,1,.06.59.06.06,0,0,1,0,0l0,.6v0c0,.2,0,.4,0,.61v0c0,.2,0,.4,0,.6v.08c0,.09,0,.18,0,.27v.23a2.83,2.83,0,0,0,0,.29v0h0a28,28,0,0,1-1.14,5.33l-1.44,2.45a10.88,10.88,0,0,0-1.91-6c-.31-.42-2.24-3.07-4.79-2.93s-4.41,3.3-5.27,4.88c-2.63,4.82-3.43,11.62-1.9,15.33h0c-1,2.44-1.82,4.7-2.72,7.52s-.76,2.73-2,6.59A80.15,80.15,0,0,1,120,141.52Z"/><path class="cls-4" d="M118.14,68.59c2.11.66,3.54,1.21,5,1.54,2.76.62,5.13-.26,6.42-2.57a10.85,10.85,0,0,0,.81-1.8c.62.94,1.67,2.43,1.12,3.62s-2.33,1.48-3.61,1.71a12.91,12.91,0,0,1-3.64,0,20.7,20.7,0,0,1-6.66-1.92c-.51-.22-1.14-.48-1.83-.81Z"/><path class="cls-4" d="M172,88c0,.25,0,.54,0,.85s-.06.64-.12,1c0,.11,0,.22-.05.33s0,.08,0,.12h0l-.06.32h0s0,0,0,.06c0,.18-.07.36-.11.53h0v0c-.09.37-.19.72-.29,1a0,0,0,0,1,0,0,.84.84,0,0,1,0,.17.43.43,0,0,1,0,0l-.06.17s0,0,0,0q-.25.75-.51,1.35h0l-.12.29h0a1.42,1.42,0,0,1-.08.18l0,.1a0,0,0,0,0,0,0,.25.25,0,0,0,0,.07,2.56,2.56,0,0,0-.11.24l-.07.13h0c-.08.18-.17.33-.23.45l-.07.13h0a.25.25,0,0,0,0,.07l-.05.08-.51.88a130.34,130.34,0,0,1-8.09,12.07c-.72,1-1.35,1.78-1.88,2.45l-.59.83-1.05,1.49a16.76,16.76,0,0,1-5.32,4.17v0a25.92,25.92,0,0,1-3.07,1.3c-.58.19-1.16.38-1.75.54a27,27,0,0,1-2.73.6h-.06a75.34,75.34,0,0,1-6,8.38c-.65.77-2.44,3.19-6,8-5,6.78-7.52,10.17-9.24,13.46a43.75,43.75,0,0,0-3.75,10.45l-1.06.78c.07-1.1.21-2.39.39-3.57A43.19,43.19,0,0,1,122,147.68a94.83,94.83,0,0,1,8-15.48c1.93-3,3.43-4.92,4.42-8.42a17.88,17.88,0,0,0,.64-3.58.66.66,0,0,1,0-.14l-.19,0a14.82,14.82,0,0,0,1.33-.87,11.76,11.76,0,0,0,2.94-3.11c4-2,8.52-5.54,10.45-11.36h0c0-.05,0-.1,0-.16.06-.23.13-.46.18-.69a.5.5,0,0,0,0-.13.43.43,0,0,0,0,0c.06-.23.11-.45.17-.67a.36.36,0,0,1,0-.1c.06-.25.12-.51.17-.76v-.05c0-.22.09-.44.13-.66l0-.18c0-.21.07-.41.11-.61,0,0,0-.08,0-.12,0-.23.08-.47.11-.7,0-.06,0-.13,0-.19l.06-.51,0-.25c0-.17,0-.34,0-.51s0-.21,0-.31l0-.5c0-.11,0-.22,0-.33s0-.22,0-.32,0-.25,0-.38v-.16c0-.31,0-.62,0-.92v-.08c0-.26,0-.51-.05-.77v-.06c0-.26,0-.52-.07-.79v0c-.06-.55-.14-1.1-.24-1.64s-.18-.91-.29-1.36a27.9,27.9,0,0,0-1.34-4.31A8.39,8.39,0,0,0,145.15,82a12.84,12.84,0,0,0-2.49-.81h0a3,3,0,0,1-1.4-.9,2.8,2.8,0,0,1-.36-.49,3.28,3.28,0,0,1-.28-.62,21.68,21.68,0,0,0-5.43.5c-.49.11-1,.24-1.45.38a1.25,1.25,0,0,0-1,1.38,53.45,53.45,0,0,1-.59,5.92,6.19,6.19,0,0,1-1.79,3.59,5.08,5.08,0,0,1-1.35.91c-3.55,1.63-5.64,4.44-7.22,7.63-.39.8-.76,1.63-1.11,2.47-1.42,3.4-2.52,6.94-3.81,10.39a1,1,0,0,1-.09.21,2.33,2.33,0,0,1-.91,1,26.54,26.54,0,0,1-8.89,2.82c-.11-.75-.21-1.54-.28-2.38a21.77,21.77,0,0,0,2.51-.48,10.19,10.19,0,0,0,2.6-1,8.42,8.42,0,0,0,4.09-5.61,51,51,0,0,1,2.49-7.46c.56-1.33,1.17-2.64,1.82-3.93a19.6,19.6,0,0,1,6.35-7.15c.24-.17.47-.34.69-.52A8.88,8.88,0,0,0,130.37,81a1.41,1.41,0,0,1,.56-1,13,13,0,0,0,3.42-3.49,14,14,0,0,0,1.18-2.11l-.6.56-.79.74a20.74,20.74,0,0,1-3.2,2.38,12.57,12.57,0,0,1-4.72,1.72,19.53,19.53,0,0,1-5.06-.15,4.45,4.45,0,0,1-2-1.1c-1.82-1.49-4-1.82-6.21-2-1-.06-2,0-3.2,0,2.17-2.49,2.41-5.53,3-8.6h0c.46.28,1.07.64,1.81,1A31.77,31.77,0,0,0,121.18,72a14.62,14.62,0,0,0,6.81.72c.3-.05,5.86-1.05,6.09-3.73.16-1.83-2.28-3.57-3.46-4a4.37,4.37,0,0,0,.07-1.34,4.78,4.78,0,0,1,2-4.67,5.32,5.32,0,0,1,.37,1.87,1.48,1.48,0,0,0,.29,1,1.68,1.68,0,0,0,1,.45A64.17,64.17,0,0,1,151.27,68c4.22,2,8.45,4.08,12,7.15A41.88,41.88,0,0,1,170.51,83l0,0s0,0,0,0,0,0,0,0a.36.36,0,0,1,0,.09,1.32,1.32,0,0,1,.12.2l.17.3A2.44,2.44,0,0,0,171,84s0,0,0,0l.13.28h0a1.45,1.45,0,0,1,.09.22l0,.05,0,.06a0,0,0,0,1,0,0l0,0s0,.08,0,.12l0,.07,0,.07a154531602568.09,154531602568.09,0,0,0,0,.12s0,0,0,.06l0,.08,0,.1s0,0,0,0l0,.1s0,0,0,.08v0s0,0,0,.06l0,.1c0,.07,0,.13,0,.19s0,0,0,0h0s0,0,0,0a.11.11,0,0,0,0,0s0,0,0,.06a.42.42,0,0,0,0,.06c0,.18.06.32.08.41h0A8,8,0,0,1,172,88Z"/><path class="cls-1" d="M98.45,92.2s0,0-.07.07l0-.07Z"/><path class="cls-1" d="M108.28,92.2l0,.11-.12-.11Z"/><path class="cls-4" d="M102.29,94.18l-.76-.6s-2.2-.76-1.67,2.2,1.59,11.45,1.59,11.45,1.82,12.67-5.23,22.23a26.05,26.05,0,0,0,7.08-6.67s3.16,5.46,6.8,6.67c0,0-9.48-11.23-3-35.35,0,0-2-1-3.12,0s-.65,12.44-.65,12.44Z"/></svg>